<svg width="313" height="25" viewBox="0 0 313 25" fill="none" xmlns="http://www.w3.org/2000/svg">
<path d="M5.475 19.675H2.36824V7.91172H0.25V5.41219H2.36824V4.70611C2.36824 3.31278 2.70716 2.19246 3.385 1.34516C4.06284 0.497867 5.43263 0.0742188 7.49439 0.0742188C7.79565 0.0742188 8.17693 0.0836332 8.63824 0.102462V2.63023C8.23342 2.60199 7.9557 2.58787 7.80507 2.58787C7.01426 2.58787 6.4588 2.69613 6.13871 2.91266C5.81862 3.11978 5.62563 3.36926 5.55973 3.66111C5.50324 3.94354 5.475 4.52724 5.475 5.41219H8.63824V7.91172H5.475V19.675Z" fill="black"/>
<path d="M5.475 19.675H2.36824V7.91172H0.25V5.41219H2.36824V4.70611C2.36824 3.31278 2.70716 2.19246 3.385 1.34516C4.06284 0.497867 5.43263 0.0742188 7.49439 0.0742188C7.79565 0.0742188 8.17693 0.0836332 8.63824 0.102462V2.63023C8.23342 2.60199 7.9557 2.58787 7.80507 2.58787C7.01426 2.58787 6.4588 2.69613 6.13871 2.91266C5.81862 3.11978 5.62563 3.36926 5.55973 3.66111C5.50324 3.94354 5.475 4.52724 5.475 5.41219H8.63824V7.91172H5.475V19.675Z" fill="url(#paint0_linear_4473_6)"/>
<path d="M13.3769 19.675H10.1572V5.41219H13.0662V8.8155C13.4804 7.48807 14.05 6.51838 14.7749 5.90645C15.4998 5.29451 16.2436 4.98854 17.0061 4.98854C17.1097 4.98854 17.2509 4.99325 17.4298 5.00266V8.46246C15.7917 8.46246 14.7043 8.98496 14.1677 10.03C13.6405 11.075 13.3769 12.087 13.3769 13.0661V19.675Z" fill="black"/>
<path d="M27.9583 15.1279L30.8674 15.5233C30.4908 16.813 29.7565 17.8769 28.6644 18.7148C27.5723 19.5526 26.2025 19.9716 24.555 19.9716C22.578 19.9716 20.9869 19.3079 19.7819 17.9804C18.5768 16.653 17.9743 14.8548 17.9743 12.586C17.9743 10.4301 18.5816 8.64604 19.796 7.23388C21.0105 5.82172 22.658 5.11564 24.7386 5.11564C26.7721 5.11564 28.3443 5.8123 29.4552 7.20564C30.5661 8.59897 31.1216 10.3877 31.1216 12.5719L31.1074 12.939H21.3211C21.3211 13.9087 21.4106 14.6854 21.5895 15.2691C21.7777 15.8528 22.1449 16.3612 22.6909 16.7942C23.237 17.2273 23.9195 17.4438 24.7386 17.4438C26.3296 17.4438 27.4029 16.6718 27.9583 15.1279ZM27.7606 10.8631C27.7512 9.83696 27.4405 8.99908 26.8286 8.34949C26.2261 7.69989 25.4776 7.3751 24.5832 7.3751C23.6983 7.3751 22.9593 7.68106 22.3661 8.293C21.773 8.89552 21.4247 9.75223 21.3211 10.8631H27.7606Z" fill="black"/>
<path d="M44.9969 24.4905H41.6501V17.1614C40.8875 19.0348 39.5648 19.9716 37.6819 19.9716C35.8743 19.9716 34.5186 19.2325 33.6149 17.7545C32.7205 16.2764 32.2733 14.5583 32.2733 12.6001C32.2733 10.3971 32.8005 8.59897 33.8549 7.20564C34.9093 5.8123 36.3686 5.11564 38.2326 5.11564C39.9743 5.11564 41.3676 5.8782 42.4126 7.40334L43.2741 5.41219H44.9969V24.4905ZM41.6501 11.3009C41.6501 10.3689 41.4335 9.54512 41.0005 8.82962C40.5768 8.11413 39.8802 7.75638 38.9105 7.75638C37.8655 7.75638 37.0652 8.18944 36.5098 9.05557C35.9543 9.91228 35.6766 11.0844 35.6766 12.5719C35.6766 14.097 35.9591 15.2832 36.5239 16.1305C37.0982 16.9778 37.8231 17.4014 38.6986 17.4014C39.4989 17.4014 40.1908 17.0437 40.7745 16.3282C41.3582 15.6033 41.6501 14.6148 41.6501 13.3627V11.3009Z" fill="black"/>
<path d="M59.7336 19.675H56.7399V16.5965C55.9302 18.8466 54.4286 19.9716 52.2351 19.9716C50.9359 19.9716 49.905 19.5715 49.1424 18.7712C48.3799 17.9616 47.9986 16.8366 47.9986 15.3962V5.41219H51.2889V14.7042C51.2889 15.7304 51.5149 16.4035 51.9668 16.7236C52.4186 17.0437 52.8611 17.2037 53.2942 17.2037C53.9909 17.2037 54.7016 16.8931 55.4265 16.2717C56.1515 15.6409 56.5139 14.3041 56.5139 12.2612V5.41219H59.7336V19.675Z" fill="black"/>
<path d="M71.8155 15.1279L74.7246 15.5233C74.348 16.813 73.6137 17.8769 72.5216 18.7148C71.4295 19.5526 70.0597 19.9716 68.4122 19.9716C66.4352 19.9716 64.8442 19.3079 63.6391 17.9804C62.4341 16.653 61.8316 14.8548 61.8316 12.586C61.8316 10.4301 62.4388 8.64604 63.6532 7.23388C64.8677 5.82172 66.5152 5.11564 68.5958 5.11564C70.6293 5.11564 72.2015 5.8123 73.3124 7.20564C74.4233 8.59897 74.9788 10.3877 74.9788 12.5719L74.9647 12.939H65.1784C65.1784 13.9087 65.2678 14.6854 65.4467 15.2691C65.635 15.8528 66.0021 16.3612 66.5482 16.7942C67.0942 17.2273 67.7767 17.4438 68.5958 17.4438C70.1868 17.4438 71.2601 16.6718 71.8155 15.1279ZM71.6178 10.8631C71.6084 9.83696 71.2977 8.99908 70.6858 8.34949C70.0833 7.69989 69.3348 7.3751 68.4405 7.3751C67.5555 7.3751 66.8165 7.68106 66.2234 8.293C65.6303 8.89552 65.2819 9.75223 65.1784 10.8631H71.6178Z" fill="black"/>
<path d="M88.8541 19.675H85.6344V10.7643C85.6344 9.82284 85.4178 9.11676 84.9848 8.64604C84.5517 8.16591 84.0292 7.92584 83.4173 7.92584C82.5794 7.92584 81.8451 8.293 81.2143 9.02732C80.5836 9.76165 80.2682 10.8678 80.2682 12.3459V19.675H77.0484V5.41219H79.9857V8.71665C81.0119 6.31597 82.4523 5.11564 84.307 5.11564C85.5591 5.11564 86.6276 5.51104 87.5126 6.30185C88.4069 7.09266 88.8541 8.48129 88.8541 10.4677V19.675Z" fill="black"/>
<path d="M98.4647 17.1614V19.675C97.5045 19.8821 96.7607 19.9857 96.2335 19.9857C95.3674 19.9857 94.6236 19.8162 94.0023 19.4773C93.3809 19.129 92.9243 18.6583 92.6325 18.0652C92.3501 17.4626 92.2088 16.54 92.2088 15.2973V7.91172H90.4295V5.41219H92.3924L92.689 1.6982L95.3297 1.45814V5.41219H98.1964V7.91172H95.3297V14.8737C95.3297 15.768 95.4898 16.38 95.8099 16.7095C96.1394 17.0296 96.756 17.1896 97.6598 17.1896C97.914 17.1896 98.1823 17.1802 98.4647 17.1614Z" fill="black"/>
<path d="M103.514 19.675H100.294V0.399016H103.514V19.675Z" fill="black"/>
<path d="M117.178 5.41219L111.628 21.6521C111.289 22.65 110.823 23.422 110.23 23.968C109.646 24.5234 108.818 24.8012 107.744 24.8012C107.321 24.8012 106.704 24.7682 105.894 24.7023V22.1463L107.434 22.1746C108.111 22.1746 108.61 22.0616 108.931 21.8356C109.26 21.6191 109.519 21.2284 109.707 20.6635C109.896 20.0987 109.99 19.7692 109.99 19.675C109.99 19.6185 109.891 19.3267 109.693 18.7995L104.793 5.41219H108.168L111.628 14.8172L114.607 5.41219H117.178Z" fill="black"/>
<path d="M137.02 19.675H133.956C133.683 18.8089 133.518 17.8486 133.461 16.7942C132.605 18.9125 130.995 19.9716 128.632 19.9716C127.21 19.9716 126.066 19.5573 125.2 18.7289C124.344 17.891 123.915 16.8413 123.915 15.5798C123.915 12.3035 126.791 10.6654 132.544 10.6654C132.77 10.6654 133.075 10.6701 133.461 10.6796V9.60631C133.461 8.12825 132.454 7.38922 130.439 7.38922C128.481 7.38922 127.37 8.12825 127.107 9.60631L124.367 9.19678C124.518 8.01057 125.13 7.03618 126.203 6.27361C127.276 5.50163 128.83 5.11564 130.863 5.11564C131.965 5.11564 132.864 5.20978 133.56 5.39807C134.257 5.57694 134.845 5.88762 135.326 6.3301C135.806 6.76316 136.135 7.23859 136.314 7.75638C136.502 8.26476 136.596 9.13088 136.596 10.3548V16.7942C136.596 17.7262 136.738 18.6865 137.02 19.675ZM133.461 12.4165C129.3 12.4165 127.22 13.4097 127.22 15.3962C127.22 15.9893 127.427 16.4977 127.841 16.9213C128.265 17.3355 128.9 17.5427 129.747 17.5427C130.971 17.5427 131.894 17.1567 132.515 16.3847C133.146 15.6033 133.461 14.7183 133.461 13.7298V12.4165Z" fill="black"/>
<path d="M137.02 19.675H133.956C133.683 18.8089 133.518 17.8486 133.461 16.7942C132.605 18.9125 130.995 19.9716 128.632 19.9716C127.21 19.9716 126.066 19.5573 125.2 18.7289C124.344 17.891 123.915 16.8413 123.915 15.5798C123.915 12.3035 126.791 10.6654 132.544 10.6654C132.77 10.6654 133.075 10.6701 133.461 10.6796V9.60631C133.461 8.12825 132.454 7.38922 130.439 7.38922C128.481 7.38922 127.37 8.12825 127.107 9.60631L124.367 9.19678C124.518 8.01057 125.13 7.03618 126.203 6.27361C127.276 5.50163 128.83 5.11564 130.863 5.11564C131.965 5.11564 132.864 5.20978 133.56 5.39807C134.257 5.57694 134.845 5.88762 135.326 6.3301C135.806 6.76316 136.135 7.23859 136.314 7.75638C136.502 8.26476 136.596 9.13088 136.596 10.3548V16.7942C136.596 17.7262 136.738 18.6865 137.02 19.675ZM133.461 12.4165C129.3 12.4165 127.22 13.4097 127.22 15.3962C127.22 15.9893 127.427 16.4977 127.841 16.9213C128.265 17.3355 128.9 17.5427 129.747 17.5427C130.971 17.5427 131.894 17.1567 132.515 16.3847C133.146 15.6033 133.461 14.7183 133.461 13.7298V12.4165Z" fill="url(#paint1_linear_4473_6)"/>
<path d="M137.861 16.3988L140.883 15.8198C141.345 16.9778 142.361 17.5568 143.934 17.5568C145.929 17.5568 146.927 16.9684 146.927 15.7916C146.927 15.415 146.772 15.1043 146.461 14.8596C146.151 14.6148 145.783 14.45 145.36 14.3653L142.761 13.871C139.881 13.3156 138.44 11.9081 138.44 9.64868C138.44 8.38714 138.897 7.31861 139.81 6.44307C140.723 5.55811 142.084 5.11564 143.891 5.11564C146.904 5.11564 148.744 6.22183 149.413 8.43422L146.546 9.0132C146.245 7.93996 145.388 7.40334 143.976 7.40334C142.262 7.40334 141.406 7.93996 141.406 9.0132C141.406 9.75694 142.098 10.27 143.482 10.5525L146.546 11.1879C148.928 11.6775 150.119 13.0426 150.119 15.2832C150.119 16.8554 149.507 18.0322 148.283 18.8136C147.059 19.5856 145.605 19.9716 143.919 19.9716C142.46 19.9716 141.17 19.6797 140.05 19.096C138.93 18.5029 138.2 17.6039 137.861 16.3988Z" fill="black"/>
<path d="M165.138 19.675H161.749L158.105 12.36L154.942 15.9046V19.675H151.864V0.399016H154.942V12.36C155.215 12.0023 155.432 11.734 155.592 11.5551L161.24 5.41219H164.7L160.407 10.1288L165.138 19.675Z" fill="black"/>
<path d="M175.455 15.1279L178.364 15.5233C177.987 16.813 177.253 17.8769 176.161 18.7148C175.069 19.5526 173.699 19.9716 172.051 19.9716C170.074 19.9716 168.483 19.3079 167.278 17.9804C166.073 16.653 165.471 14.8548 165.471 12.586C165.471 10.4301 166.078 8.64604 167.292 7.23388C168.507 5.82172 170.154 5.11564 172.235 5.11564C174.268 5.11564 175.841 5.8123 176.952 7.20564C178.062 8.59897 178.618 10.3877 178.618 12.5719L178.604 12.939H168.817C168.817 13.9087 168.907 14.6854 169.086 15.2691C169.274 15.8528 169.641 16.3612 170.187 16.7942C170.733 17.2273 171.416 17.4438 172.235 17.4438C173.826 17.4438 174.899 16.6718 175.455 15.1279ZM175.257 10.8631C175.248 9.83696 174.937 8.99908 174.325 8.34949C173.722 7.69989 172.974 7.3751 172.08 7.3751C171.195 7.3751 170.456 7.68106 169.862 8.293C169.269 8.89552 168.921 9.75223 168.817 10.8631H175.257Z" fill="black"/>
<path d="M192.409 19.675H189.401V16.7942C188.572 18.9125 187.169 19.9716 185.192 19.9716C183.441 19.9716 182.1 19.242 181.168 17.7827C180.236 16.3235 179.77 14.5112 179.77 12.3459C179.77 10.3312 180.255 8.57543 181.224 7.07854C182.194 5.58165 183.573 4.8332 185.362 4.8332C187.198 4.8332 188.473 5.67109 189.189 7.34685V0.399016H192.409V19.675ZM189.189 11.2585C189.189 10.1006 188.911 9.20149 188.356 8.56131C187.81 7.91172 187.099 7.58692 186.223 7.58692C185.272 7.58692 184.529 8.00115 183.992 8.82962C183.455 9.65809 183.187 10.8961 183.187 12.5436C183.187 15.7257 184.185 17.3167 186.181 17.3167C186.972 17.3167 187.668 16.9778 188.271 16.3C188.883 15.6127 189.189 14.7372 189.189 13.6733V11.2585Z" fill="black"/>
<path d="M213.579 24.4905H210.232V17.1614C209.469 19.0348 208.146 19.9716 206.264 19.9716C204.456 19.9716 203.1 19.2325 202.196 17.7545C201.302 16.2764 200.855 14.5583 200.855 12.6001C200.855 10.3971 201.382 8.59897 202.437 7.20564C203.491 5.8123 204.95 5.11564 206.814 5.11564C208.556 5.11564 209.949 5.8782 210.994 7.40334L211.856 5.41219H213.579V24.4905ZM210.232 11.3009C210.232 10.3689 210.015 9.54512 209.582 8.82962C209.158 8.11413 208.462 7.75638 207.492 7.75638C206.447 7.75638 205.647 8.18944 205.091 9.05557C204.536 9.91228 204.258 11.0844 204.258 12.5719C204.258 14.097 204.541 15.2832 205.106 16.1305C205.68 16.9778 206.405 17.4014 207.28 17.4014C208.08 17.4014 208.772 17.0437 209.356 16.3282C209.94 15.6033 210.232 14.6148 210.232 13.3627V11.3009Z" fill="black"/>
<path d="M213.579 24.4905H210.232V17.1614C209.469 19.0348 208.146 19.9716 206.264 19.9716C204.456 19.9716 203.1 19.2325 202.196 17.7545C201.302 16.2764 200.855 14.5583 200.855 12.6001C200.855 10.3971 201.382 8.59897 202.437 7.20564C203.491 5.8123 204.95 5.11564 206.814 5.11564C208.556 5.11564 209.949 5.8782 210.994 7.40334L211.856 5.41219H213.579V24.4905ZM210.232 11.3009C210.232 10.3689 210.015 9.54512 209.582 8.82962C209.158 8.11413 208.462 7.75638 207.492 7.75638C206.447 7.75638 205.647 8.18944 205.091 9.05557C204.536 9.91228 204.258 11.0844 204.258 12.5719C204.258 14.097 204.541 15.2832 205.106 16.1305C205.68 16.9778 206.405 17.4014 207.28 17.4014C208.08 17.4014 208.772 17.0437 209.356 16.3282C209.94 15.6033 210.232 14.6148 210.232 13.3627V11.3009Z" fill="url(#paint2_linear_4473_6)"/>
<path d="M228.315 19.675H225.321V16.5965C224.512 18.8466 223.01 19.9716 220.817 19.9716C219.517 19.9716 218.487 19.5715 217.724 18.7712C216.961 17.9616 216.58 16.8366 216.58 15.3962V5.41219H219.871V14.7042C219.871 15.7304 220.096 16.4035 220.548 16.7236C221 17.0437 221.443 17.2037 221.876 17.2037C222.572 17.2037 223.283 16.8931 224.008 16.2717C224.733 15.6409 225.096 14.3041 225.096 12.2612V5.41219H228.315V19.675Z" fill="black"/>
<path d="M240.397 15.1279L243.306 15.5233C242.93 16.813 242.195 17.8769 241.103 18.7148C240.011 19.5526 238.641 19.9716 236.994 19.9716C235.017 19.9716 233.426 19.3079 232.221 17.9804C231.016 16.653 230.413 14.8548 230.413 12.586C230.413 10.4301 231.02 8.64604 232.235 7.23388C233.449 5.82172 235.097 5.11564 237.177 5.11564C239.211 5.11564 240.783 5.8123 241.894 7.20564C243.005 8.59897 243.56 10.3877 243.56 12.5719L243.546 12.939H233.76C233.76 13.9087 233.849 14.6854 234.028 15.2691C234.217 15.8528 234.584 16.3612 235.13 16.7942C235.676 17.2273 236.358 17.4438 237.177 17.4438C238.768 17.4438 239.842 16.6718 240.397 15.1279ZM240.199 10.8631C240.19 9.83696 239.879 8.99908 239.267 8.34949C238.665 7.69989 237.916 7.3751 237.022 7.3751C236.137 7.3751 235.398 7.68106 234.805 8.293C234.212 8.89552 233.864 9.75223 233.76 10.8631H240.199Z" fill="black"/>
<path d="M243.893 16.3988L246.915 15.8198C247.376 16.9778 248.393 17.5568 249.965 17.5568C251.961 17.5568 252.959 16.9684 252.959 15.7916C252.959 15.415 252.804 15.1043 252.493 14.8596C252.182 14.6148 251.815 14.45 251.392 14.3653L248.793 13.871C245.912 13.3156 244.472 11.9081 244.472 9.64868C244.472 8.38714 244.929 7.31861 245.842 6.44307C246.755 5.55811 248.115 5.11564 249.923 5.11564C252.936 5.11564 254.776 6.22183 255.445 8.43422L252.578 9.0132C252.277 7.93996 251.42 7.40334 250.008 7.40334C248.294 7.40334 247.438 7.93996 247.438 9.0132C247.438 9.75694 248.13 10.27 249.514 10.5525L252.578 11.1879C254.96 11.6775 256.151 13.0426 256.151 15.2832C256.151 16.8554 255.539 18.0322 254.315 18.8136C253.091 19.5856 251.636 19.9716 249.951 19.9716C248.492 19.9716 247.202 19.6797 246.082 19.096C244.962 18.5029 244.232 17.6039 243.893 16.3988Z" fill="black"/>
<path d="M264.504 17.1614V19.675C263.544 19.8821 262.8 19.9857 262.273 19.9857C261.407 19.9857 260.663 19.8162 260.042 19.4773C259.421 19.129 258.964 18.6583 258.672 18.0652C258.39 17.4626 258.249 16.54 258.249 15.2973V7.91172H256.469V5.41219H258.432L258.729 1.6982L261.369 1.45814V5.41219H264.236V7.91172H261.369V14.8737C261.369 15.768 261.529 16.38 261.85 16.7095C262.179 17.0296 262.796 17.1896 263.7 17.1896C263.954 17.1896 264.222 17.1802 264.504 17.1614Z" fill="black"/>
<path d="M269.554 3.74584H266.334V0.399016H269.554V3.74584ZM269.554 19.675H266.334V5.41219H269.554V19.675Z" fill="black"/>
<path d="M278.148 19.9716C276.039 19.9716 274.429 19.2137 273.318 17.698C272.207 16.1823 271.652 14.4453 271.652 12.4871C271.652 10.3783 272.264 8.6225 273.487 7.21976C274.721 5.81701 276.345 5.11564 278.359 5.11564C280.271 5.11564 281.838 5.79818 283.062 7.16327C284.295 8.52836 284.912 10.303 284.912 12.4871C284.912 14.7372 284.272 16.5494 282.991 17.9239C281.72 19.289 280.106 19.9716 278.148 19.9716ZM278.261 17.3167C280.426 17.3167 281.509 15.7021 281.509 12.473C281.509 11.0138 281.25 9.86521 280.732 9.02732C280.214 8.18003 279.419 7.75638 278.345 7.75638C277.234 7.75638 276.411 8.19415 275.874 9.06969C275.337 9.93582 275.069 11.0891 275.069 12.5295C275.069 14.0829 275.352 15.2691 275.916 16.0881C276.491 16.9072 277.272 17.3167 278.261 17.3167Z" fill="black"/>
<path d="M298.815 19.675H295.596V10.7643C295.596 9.82284 295.379 9.11676 294.946 8.64604C294.513 8.16591 293.991 7.92584 293.379 7.92584C292.541 7.92584 291.806 8.293 291.176 9.02732C290.545 9.76165 290.23 10.8678 290.23 12.3459V19.675H287.01V5.41219H289.947V8.71665C290.973 6.31597 292.414 5.11564 294.268 5.11564C295.52 5.11564 296.589 5.51104 297.474 6.30185C298.368 7.09266 298.815 8.48129 298.815 10.4677V19.675Z" fill="black"/>
<path d="M300.08 16.3988L303.102 15.8198C303.564 16.9778 304.58 17.5568 306.152 17.5568C308.148 17.5568 309.146 16.9684 309.146 15.7916C309.146 15.415 308.991 15.1043 308.68 14.8596C308.37 14.6148 308.002 14.45 307.579 14.3653L304.98 13.871C302.1 13.3156 300.659 11.9081 300.659 9.64868C300.659 8.38714 301.116 7.31861 302.029 6.44307C302.942 5.55811 304.303 5.11564 306.11 5.11564C309.123 5.11564 310.963 6.22183 311.632 8.43422L308.765 9.0132C308.464 7.93996 307.607 7.40334 306.195 7.40334C304.481 7.40334 303.625 7.93996 303.625 9.0132C303.625 9.75694 304.317 10.27 305.701 10.5525L308.765 11.1879C311.147 11.6775 312.338 13.0426 312.338 15.2832C312.338 16.8554 311.726 18.0322 310.502 18.8136C309.278 19.5856 307.824 19.9716 306.138 19.9716C304.679 19.9716 303.389 19.6797 302.269 19.096C301.149 18.5029 300.419 17.6039 300.08 16.3988Z" fill="black"/>
<defs>
<linearGradient id="paint0_linear_4473_6" x1="-21.616" y1="1.61965" x2="-24.3167" y2="18.2576" gradientUnits="userSpaceOnUse">
<stop stop-color="#D05131"/>
<stop offset="1" stop-color="#6A2919"/>
</linearGradient>
<linearGradient id="paint1_linear_4473_6" x1="124.489" y1="6.25596" x2="122.538" y2="20.8634" gradientUnits="userSpaceOnUse">
<stop stop-color="#D05131"/>
<stop offset="1" stop-color="#6A2919"/>
</linearGradient>
<linearGradient id="paint2_linear_4473_6" x1="187.105" y1="7.02867" x2="184.018" y2="18.1581" gradientUnits="userSpaceOnUse">
<stop stop-color="#D05131"/>
<stop offset="1" stop-color="#6A2919"/>
</linearGradient>
</defs>
</svg>
