<svg width="367" height="26" viewBox="0 0 367 26" fill="none" xmlns="http://www.w3.org/2000/svg">
<path d="M13.075 5.88188L8.05142 20.6743H5.28332L0.142578 5.88188H3.62833L7.08478 15.9144L10.4534 5.88188H13.075Z" fill="url(#paint0_linear_4468_16)"/>
<path d="M23.4748 15.9583L26.4919 16.3684C26.1013 17.7061 25.3397 18.8094 24.2071 19.6784C23.0745 20.5474 21.6538 20.9819 19.9451 20.9819C17.8947 20.9819 16.2446 20.2935 14.9948 18.9168C13.745 17.5401 13.1201 15.6752 13.1201 13.322C13.1201 11.0861 13.7499 9.23581 15.0094 7.77121C16.269 6.30661 17.9777 5.57431 20.1355 5.57431C22.2446 5.57431 23.8751 6.29685 25.0273 7.74192C26.1795 9.18699 26.7555 11.0422 26.7555 13.3074L26.7409 13.6882H16.5912C16.5912 14.6939 16.684 15.4994 16.8695 16.1048C17.0648 16.7102 17.4456 17.2374 18.0119 17.6866C18.5782 18.1357 19.2861 18.3603 20.1355 18.3603C21.7857 18.3603 22.8987 17.5596 23.4748 15.9583ZM23.2698 11.5352C23.26 10.471 22.9378 9.60196 22.3031 8.92825C21.6782 8.25453 20.902 7.91767 19.9744 7.91767C19.0566 7.91767 18.2901 8.235 17.675 8.86966C17.0599 9.49456 16.6986 10.3831 16.5912 11.5352H23.2698Z" fill="url(#paint1_linear_4468_16)"/>
<path d="M31.9414 20.6743H28.6021V5.88188H31.6192V9.41156C32.0488 8.03484 32.6395 7.02915 33.3913 6.39449C34.1432 5.75983 34.9145 5.4425 35.7054 5.4425C35.8128 5.4425 35.9593 5.44738 36.1448 5.45714V9.04541C34.4458 9.04541 33.3181 9.58731 32.7616 10.6711C32.2148 11.7549 31.9414 12.8046 31.9414 13.82V20.6743Z" fill="url(#paint2_linear_4468_16)"/>
<path d="M35.5601 17.2765L38.6944 16.676C39.1728 17.8769 40.2273 18.4774 41.8579 18.4774C43.9279 18.4774 44.9628 17.8672 44.9628 16.6467C44.9628 16.2561 44.8017 15.9339 44.4795 15.68C44.1573 15.4262 43.7765 15.2553 43.3371 15.1674L40.6423 14.6548C37.6545 14.0788 36.1606 12.619 36.1606 10.2757C36.1606 8.9673 36.6342 7.85909 37.5813 6.95104C38.5284 6.03322 39.9393 5.57431 41.814 5.57431C44.9384 5.57431 46.8473 6.72158 47.5405 9.01612L44.5674 9.61661C44.255 8.50351 43.3664 7.94696 41.9018 7.94696C40.1248 7.94696 39.2363 8.50351 39.2363 9.61661C39.2363 10.388 39.9539 10.9201 41.3892 11.213L44.5674 11.8721C47.0377 12.3798 48.2728 13.7956 48.2728 16.1194C48.2728 17.75 47.6382 18.9705 46.3689 19.7809C45.0995 20.5816 43.591 20.9819 41.8433 20.9819C40.3298 20.9819 38.9922 20.6792 37.8302 20.0738C36.6683 19.4587 35.9116 18.5263 35.5601 17.2765Z" fill="url(#paint3_linear_4468_16)"/>
<path d="M53.1072 4.15365H49.7679V0.682549H53.1072V4.15365ZM53.1072 20.6743H49.7679V5.88188H53.1072V20.6743Z" fill="url(#paint4_linear_4468_16)"/>
<path d="M61.7202 20.9819C59.5331 20.9819 57.8634 20.1959 56.7113 18.6239C55.5591 17.0519 54.9831 15.2504 54.9831 13.2195C54.9831 11.0324 55.6177 9.2114 56.887 7.75657C58.1661 6.30173 59.8504 5.57431 61.9399 5.57431C63.922 5.57431 65.5477 6.2822 66.817 7.69798C68.0961 9.11376 68.7356 10.9543 68.7356 13.2195C68.7356 15.5531 68.0717 17.4327 66.7438 18.8582C65.4256 20.274 63.7511 20.9819 61.7202 20.9819ZM61.8374 18.2285C64.0831 18.2285 65.206 16.5539 65.206 13.2049C65.206 11.6915 64.9374 10.5002 64.4004 9.63125C63.8634 8.75249 63.0384 8.31311 61.9253 8.31311C60.7731 8.31311 59.9188 8.76714 59.3622 9.67519C58.8057 10.5735 58.5274 11.7696 58.5274 13.2635C58.5274 14.8745 58.8203 16.1048 59.4061 16.9543C60.0017 17.8037 60.8122 18.2285 61.8374 18.2285Z" fill="url(#paint5_linear_4468_16)"/>
<path d="M82.8556 20.6743H79.5163V11.4327C79.5163 10.4563 79.2917 9.72401 78.8426 9.23581C78.3934 8.73785 77.8515 8.48887 77.2168 8.48887C76.3478 8.48887 75.5863 8.86966 74.9321 9.63125C74.2779 10.3928 73.9508 11.5401 73.9508 13.0731V20.6743H70.6115V5.88188H73.6579V9.30904C74.7221 6.81922 76.216 5.57431 78.1395 5.57431C79.4382 5.57431 80.5464 5.9844 81.4642 6.80458C82.3918 7.62475 82.8556 9.06494 82.8556 11.1251V20.6743Z" fill="url(#paint6_linear_4468_16)"/>
<path d="M107.317 20.6743H92.0117V17.7305H98.0312V5.10564C96.0295 6.8534 94.2086 8.05437 92.5682 8.70856V5.10564C94.2378 4.47098 95.2826 4.02184 95.7024 3.75821C96.1223 3.48482 96.7374 2.98685 97.5478 2.26432C98.3582 1.53202 98.9294 0.868065 99.2614 0.272461H101.663V17.7305H107.317V20.6743Z" fill="url(#paint7_linear_4468_16)"/>
<path d="M111.785 16.8371V20.6743H108.167V16.8371H111.785Z" fill="url(#paint8_linear_4468_16)"/>
<path d="M121.16 20.9819C118.709 20.9819 116.819 20.0348 115.492 18.1406C114.164 16.2366 113.5 13.82 113.5 10.8908C113.5 7.72727 114.193 5.18375 115.579 3.26024C116.976 1.33674 118.845 0.374983 121.189 0.374983C122.878 0.374983 124.304 0.829009 125.465 1.73706C126.637 2.63535 127.506 3.89002 128.072 5.50108C128.649 7.10238 128.937 8.60603 128.937 10.012C128.937 12.3652 128.668 14.2984 128.131 15.8119C127.594 17.3155 126.74 18.5555 125.568 19.5319C124.396 20.4986 122.927 20.9819 121.16 20.9819ZM121.145 18.1552C122.16 18.1552 122.981 17.8428 123.605 17.2179C124.23 16.593 124.655 15.7191 124.88 14.5962C125.104 13.4734 125.216 11.9209 125.216 9.93882C125.216 8.29847 124.938 6.74111 124.382 5.26675C123.835 3.79238 122.78 3.0552 121.218 3.0552C118.504 3.0552 117.147 5.56455 117.147 10.5832C117.147 12.8583 117.435 14.689 118.011 16.0755C118.587 17.462 119.631 18.1552 121.145 18.1552Z" fill="url(#paint9_linear_4468_16)"/>
<path d="M143.087 25.6686H141.11C137.751 21.9974 136.072 17.7451 136.072 12.912C136.072 10.2757 136.633 7.82003 137.756 5.54502C138.879 3.27001 139.997 1.64918 141.11 0.682549H143.087C141.486 2.9185 140.382 5.01288 139.777 6.96568C139.172 8.90872 138.869 10.9933 138.869 13.2195C138.869 15.475 139.25 17.6914 140.011 19.8688C140.783 22.0364 141.808 23.9697 143.087 25.6686Z" fill="black"/>
<path d="M148.068 20.6743H144.728V5.88188H147.746V9.41156C148.175 8.03484 148.766 7.02915 149.518 6.39449C150.27 5.75983 151.041 5.4425 151.832 5.4425C151.939 5.4425 152.086 5.44738 152.271 5.45714V9.04541C150.572 9.04541 149.444 9.58731 148.888 10.6711C148.341 11.7549 148.068 12.8046 148.068 13.82V20.6743Z" fill="black"/>
<path d="M162.891 15.9583L165.908 16.3684C165.517 17.7061 164.756 18.8094 163.623 19.6784C162.49 20.5474 161.07 20.9819 159.361 20.9819C157.311 20.9819 155.66 20.2935 154.411 18.9168C153.161 17.5401 152.536 15.6752 152.536 13.322C152.536 11.0861 153.166 9.23581 154.425 7.77121C155.685 6.30661 157.394 5.57431 159.551 5.57431C161.66 5.57431 163.291 6.29685 164.443 7.74192C165.595 9.18699 166.171 11.0422 166.171 13.3074L166.157 13.6882H156.007C156.007 14.6939 156.1 15.4994 156.285 16.1048C156.481 16.7102 156.861 17.2374 157.428 17.6866C157.994 18.1357 158.702 18.3603 159.551 18.3603C161.201 18.3603 162.315 17.5596 162.891 15.9583ZM162.686 11.5352C162.676 10.471 162.354 9.60196 161.719 8.92825C161.094 8.25453 160.318 7.91767 159.39 7.91767C158.472 7.91767 157.706 8.235 157.091 8.86966C156.476 9.49456 156.114 10.3831 156.007 11.5352H162.686Z" fill="black"/>
<path d="M171.343 20.6743H168.003V0.682549H171.343V20.6743Z" fill="black"/>
<path d="M183.573 15.9583L186.59 16.3684C186.2 17.7061 185.438 18.8094 184.305 19.6784C183.173 20.5474 181.752 20.9819 180.043 20.9819C177.993 20.9819 176.343 20.2935 175.093 18.9168C173.843 17.5401 173.218 15.6752 173.218 13.322C173.218 11.0861 173.848 9.23581 175.108 7.77121C176.367 6.30661 178.076 5.57431 180.234 5.57431C182.343 5.57431 183.973 6.29685 185.126 7.74192C186.278 9.18699 186.854 11.0422 186.854 13.3074L186.839 13.6882H176.69C176.69 14.6939 176.782 15.4994 176.968 16.1048C177.163 16.7102 177.544 17.2374 178.11 17.6866C178.676 18.1357 179.384 18.3603 180.234 18.3603C181.884 18.3603 182.997 17.5596 183.573 15.9583ZM183.368 11.5352C183.358 10.471 183.036 9.60196 182.401 8.92825C181.777 8.25453 181 7.91767 180.073 7.91767C179.155 7.91767 178.388 8.235 177.773 8.86966C177.158 9.49456 176.797 10.3831 176.69 11.5352H183.368Z" fill="black"/>
<path d="M201.355 20.6743H198.176C197.893 19.776 197.722 18.7801 197.664 17.6866C196.775 19.8835 195.106 20.9819 192.655 20.9819C191.18 20.9819 189.994 20.5523 189.096 19.6931C188.207 18.8241 187.763 17.7354 187.763 16.427C187.763 13.0291 190.746 11.3302 196.712 11.3302C196.946 11.3302 197.263 11.3351 197.664 11.3448V10.2317C197.664 8.69879 196.619 7.93232 194.53 7.93232C192.499 7.93232 191.346 8.69879 191.073 10.2317L188.232 9.807C188.388 8.57674 189.023 7.56617 190.136 6.77528C191.249 5.97464 192.86 5.57431 194.969 5.57431C196.111 5.57431 197.044 5.67195 197.766 5.86723C198.489 6.05275 199.099 6.37496 199.597 6.83387C200.095 7.28301 200.437 7.77609 200.622 8.31311C200.818 8.84037 200.915 9.73866 200.915 11.008V17.6866C200.915 18.6532 201.062 19.6491 201.355 20.6743ZM197.664 13.1463C193.348 13.1463 191.19 14.1764 191.19 16.2366C191.19 16.8517 191.405 17.379 191.835 17.8184C192.274 18.248 192.933 18.4628 193.812 18.4628C195.081 18.4628 196.038 18.0625 196.682 17.2618C197.337 16.4514 197.664 15.5336 197.664 14.5084V13.1463Z" fill="black"/>
<path d="M201.927 17.2765L205.061 16.676C205.54 17.8769 206.594 18.4774 208.225 18.4774C210.295 18.4774 211.33 17.8672 211.33 16.6467C211.33 16.2561 211.169 15.9339 210.846 15.68C210.524 15.4262 210.143 15.2553 209.704 15.1674L207.009 14.6548C204.021 14.0788 202.527 12.619 202.527 10.2757C202.527 8.9673 203.001 7.85909 203.948 6.95104C204.895 6.03322 206.306 5.57431 208.181 5.57431C211.305 5.57431 213.214 6.72158 213.907 9.01612L210.934 9.61661C210.622 8.50351 209.733 7.94696 208.269 7.94696C206.492 7.94696 205.603 8.50351 205.603 9.61661C205.603 10.388 206.321 10.9201 207.756 11.213L210.934 11.8721C213.405 12.3798 214.64 13.7956 214.64 16.1194C214.64 17.75 214.005 18.9705 212.736 19.7809C211.466 20.5816 209.958 20.9819 208.21 20.9819C206.697 20.9819 205.359 20.6792 204.197 20.0738C203.035 19.4587 202.278 18.5263 201.927 17.2765Z" fill="black"/>
<path d="M225.552 15.9583L228.569 16.3684C228.179 17.7061 227.417 18.8094 226.284 19.6784C225.152 20.5474 223.731 20.9819 222.022 20.9819C219.972 20.9819 218.322 20.2935 217.072 18.9168C215.822 17.5401 215.197 15.6752 215.197 13.322C215.197 11.0861 215.827 9.23581 217.087 7.77121C218.346 6.30661 220.055 5.57431 222.213 5.57431C224.322 5.57431 225.952 6.29685 227.105 7.74192C228.257 9.18699 228.833 11.0422 228.833 13.3074L228.818 13.6882H218.668C218.668 14.6939 218.761 15.4994 218.947 16.1048C219.142 16.7102 219.523 17.2374 220.089 17.6866C220.655 18.1357 221.363 18.3603 222.213 18.3603C223.863 18.3603 224.976 17.5596 225.552 15.9583ZM225.347 11.5352C225.337 10.471 225.015 9.60196 224.38 8.92825C223.756 8.25453 222.979 7.91767 222.052 7.91767C221.134 7.91767 220.367 8.235 219.752 8.86966C219.137 9.49456 218.776 10.3831 218.668 11.5352H225.347Z" fill="black"/>
<path d="M242.836 20.6743H239.716V17.6866C238.857 19.8835 237.402 20.9819 235.351 20.9819C233.535 20.9819 232.144 20.2252 231.177 18.7118C230.211 17.1984 229.727 15.3188 229.727 13.0731C229.727 10.9836 230.23 9.16258 231.236 7.61011C232.242 6.05763 233.672 5.28139 235.527 5.28139C237.431 5.28139 238.754 6.15039 239.496 7.88838V0.682549H242.836V20.6743ZM239.496 11.9453C239.496 10.7443 239.208 9.81189 238.632 9.14793C238.066 8.47422 237.329 8.13736 236.421 8.13736C235.434 8.13736 234.663 8.56698 234.107 9.42621C233.55 10.2854 233.272 11.5694 233.272 13.2781C233.272 16.5783 234.307 18.2285 236.377 18.2285C237.197 18.2285 237.919 17.877 238.544 17.1739C239.179 16.4612 239.496 15.5531 239.496 14.4498V11.9453Z" fill="black"/>
<path d="M263.533 20.6743H259.827V16.1341H250.952V13.4978L259.827 0.272461H263.533V13.0584H266.535V16.1341H263.533V20.6743ZM260.091 4.03648L254.423 13.0584H259.827V7.53688C259.827 6.95104 259.857 6.42378 259.915 5.95511L260.091 4.03648Z" fill="black"/>
<path d="M279.806 0.682549L266.727 25.6686H264.647L277.667 0.682549H279.806Z" fill="black"/>
<path d="M295.522 17.5547V20.6743H280.788V17.1739L286.91 13.1024C288.814 11.833 290.093 10.7102 290.747 9.73378C291.401 8.74761 291.729 7.84444 291.729 7.02427C291.729 6.0381 291.401 5.20816 290.747 4.53445C290.093 3.86073 289.244 3.52387 288.199 3.52387C285.914 3.52387 284.601 4.91524 284.259 7.69798L280.788 6.83387C281.052 5.05682 281.838 3.53852 283.146 2.27896C284.464 1.00964 286.187 0.374983 288.316 0.374983C290.523 0.374983 292.285 1.00476 293.603 2.26432C294.921 3.51411 295.58 5.10564 295.58 7.03891C295.58 8.74761 294.995 10.2757 293.823 11.6231C292.651 12.9608 289.746 14.938 285.109 17.5547H295.522Z" fill="black"/>
<path d="M304.691 20.9819C302.241 20.9819 300.351 20.0348 299.023 18.1406C297.696 16.2366 297.032 13.82 297.032 10.8908C297.032 7.72727 297.725 5.18375 299.111 3.26024C300.508 1.33674 302.377 0.374983 304.721 0.374983C306.41 0.374983 307.835 0.829009 308.997 1.73706C310.169 2.63535 311.038 3.89002 311.604 5.50108C312.18 7.10238 312.468 8.60603 312.468 10.012C312.468 12.3652 312.2 14.2984 311.663 15.8119C311.126 17.3155 310.272 18.5555 309.1 19.5319C307.928 20.4986 306.459 20.9819 304.691 20.9819ZM304.677 18.1552C305.692 18.1552 306.512 17.8428 307.137 17.2179C307.762 16.593 308.187 15.7191 308.412 14.5962C308.636 13.4734 308.748 11.9209 308.748 9.93882C308.748 8.29847 308.47 6.74111 307.914 5.26675C307.367 3.79238 306.312 3.0552 304.75 3.0552C302.036 3.0552 300.678 5.56455 300.678 10.5832C300.678 12.8583 300.966 14.689 301.543 16.0755C302.119 17.462 303.163 18.1552 304.677 18.1552Z" fill="black"/>
<path d="M325.798 0.682549L312.719 25.6686H310.639L323.659 0.682549H325.798Z" fill="black"/>
<path d="M341.514 17.5547V20.6743H326.78V17.1739L332.902 13.1024C334.806 11.833 336.085 10.7102 336.739 9.73378C337.393 8.74761 337.721 7.84444 337.721 7.02427C337.721 6.0381 337.393 5.20816 336.739 4.53445C336.085 3.86073 335.236 3.52387 334.191 3.52387C331.906 3.52387 330.593 4.91524 330.251 7.69798L326.78 6.83387C327.044 5.05682 327.83 3.53852 329.138 2.27896C330.456 1.00964 332.179 0.374983 334.308 0.374983C336.515 0.374983 338.277 1.00476 339.595 2.26432C340.913 3.51411 341.572 5.10564 341.572 7.03891C341.572 8.74761 340.987 10.2757 339.815 11.6231C338.643 12.9608 335.738 14.938 331.101 17.5547H341.514Z" fill="black"/>
<path d="M345.103 0.682549H357.538L357.216 3.77285H347.74L347.183 9.57267C348.384 8.03972 349.951 7.27325 351.884 7.27325C353.808 7.27325 355.429 7.9372 356.747 9.2651C358.075 10.593 358.739 12.1699 358.739 13.9958C358.739 15.8997 358.045 17.5401 356.659 18.9168C355.272 20.2935 353.368 20.9819 350.947 20.9819C349.024 20.9819 347.339 20.5376 345.894 19.6491C344.459 18.7606 343.526 17.379 343.097 15.5043L346.553 14.9917C347.227 17.0324 348.628 18.0527 350.757 18.0527C352.065 18.0527 353.071 17.6573 353.774 16.8664C354.486 16.0755 354.843 15.1186 354.843 13.9958C354.843 12.8827 354.491 11.9453 353.788 11.1837C353.085 10.4124 352.172 10.0267 351.05 10.0267C349.351 10.0267 348.062 10.8029 347.183 12.3554L343.961 11.7256L345.103 0.682549Z" fill="black"/>
<path d="M359.135 0.682549H361.113C364.491 4.37334 366.18 8.62556 366.18 13.4392C366.18 16.0853 365.609 18.5458 364.466 20.8208C363.334 23.0958 362.216 24.7117 361.113 25.6686H359.135C360.737 23.4424 361.84 21.3578 362.445 19.4148C363.051 17.462 363.353 15.3676 363.353 13.1316C363.353 8.64997 361.947 4.50027 359.135 0.682549Z" fill="black"/>
<defs>
<linearGradient id="paint0_linear_4468_16" x1="0.142577" y1="7.74192" x2="1.71312" y2="40.6551" gradientUnits="userSpaceOnUse">
<stop stop-color="#D05131"/>
<stop offset="1" stop-color="#6A2919"/>
</linearGradient>
<linearGradient id="paint1_linear_4468_16" x1="0.142577" y1="7.74192" x2="1.71312" y2="40.6551" gradientUnits="userSpaceOnUse">
<stop stop-color="#D05131"/>
<stop offset="1" stop-color="#6A2919"/>
</linearGradient>
<linearGradient id="paint2_linear_4468_16" x1="0.142577" y1="7.74192" x2="1.71312" y2="40.6551" gradientUnits="userSpaceOnUse">
<stop stop-color="#D05131"/>
<stop offset="1" stop-color="#6A2919"/>
</linearGradient>
<linearGradient id="paint3_linear_4468_16" x1="0.142577" y1="7.74192" x2="1.71312" y2="40.6551" gradientUnits="userSpaceOnUse">
<stop stop-color="#D05131"/>
<stop offset="1" stop-color="#6A2919"/>
</linearGradient>
<linearGradient id="paint4_linear_4468_16" x1="0.142577" y1="7.74192" x2="1.71312" y2="40.6551" gradientUnits="userSpaceOnUse">
<stop stop-color="#D05131"/>
<stop offset="1" stop-color="#6A2919"/>
</linearGradient>
<linearGradient id="paint5_linear_4468_16" x1="0.142577" y1="7.74192" x2="1.71312" y2="40.6551" gradientUnits="userSpaceOnUse">
<stop stop-color="#D05131"/>
<stop offset="1" stop-color="#6A2919"/>
</linearGradient>
<linearGradient id="paint6_linear_4468_16" x1="0.142577" y1="7.74192" x2="1.71312" y2="40.6551" gradientUnits="userSpaceOnUse">
<stop stop-color="#D05131"/>
<stop offset="1" stop-color="#6A2919"/>
</linearGradient>
<linearGradient id="paint7_linear_4468_16" x1="0.142577" y1="7.74192" x2="1.71312" y2="40.6551" gradientUnits="userSpaceOnUse">
<stop stop-color="#D05131"/>
<stop offset="1" stop-color="#6A2919"/>
</linearGradient>
<linearGradient id="paint8_linear_4468_16" x1="0.142577" y1="7.74192" x2="1.71312" y2="40.6551" gradientUnits="userSpaceOnUse">
<stop stop-color="#D05131"/>
<stop offset="1" stop-color="#6A2919"/>
</linearGradient>
<linearGradient id="paint9_linear_4468_16" x1="0.142577" y1="7.74192" x2="1.71312" y2="40.6551" gradientUnits="userSpaceOnUse">
<stop stop-color="#D05131"/>
<stop offset="1" stop-color="#6A2919"/>
</linearGradient>
</defs>
</svg>
