<svg width="140" height="21" viewBox="0 0 140 21" fill="none" xmlns="http://www.w3.org/2000/svg">
<path d="M0.197266 16.7239L3.21929 16.1449C3.6806 17.3029 4.69735 17.8819 6.26956 17.8819C8.26542 17.8819 9.26334 17.2935 9.26334 16.1167C9.26334 15.7401 9.10801 15.4294 8.79733 15.1847C8.48666 14.9399 8.11949 14.7751 7.69584 14.6904L5.09747 14.1961C2.21666 13.6407 0.776252 12.2332 0.776252 9.97378C0.776252 8.71225 1.23285 7.64371 2.14605 6.76817C3.05925 5.88322 4.41963 5.44074 6.2272 5.44074C9.23981 5.44074 11.0803 6.54694 11.7487 8.75932L8.88206 9.33831C8.5808 8.26507 7.72409 7.72844 6.31193 7.72844C4.5985 7.72844 3.74179 8.26507 3.74179 9.33831C3.74179 10.082 4.43375 10.5951 5.81767 10.8776L8.88206 11.513C11.2639 12.0026 12.4548 13.3677 12.4548 15.6083C12.4548 17.1805 11.8429 18.3573 10.619 19.1387C9.39515 19.9107 7.94062 20.2967 6.25544 20.2967C4.79621 20.2967 3.50643 20.0048 2.38612 19.4211C1.2658 18.828 0.536184 17.929 0.197266 16.7239Z" fill="black"/>
<path d="M22.4326 14.761L25.2004 15.0434C24.8427 16.8322 24.1507 18.1549 23.1246 19.0116C22.0984 19.8683 20.8604 20.2967 19.4106 20.2967C17.443 20.2967 15.9272 19.5812 14.8634 18.1502C13.809 16.7098 13.2818 14.9493 13.2818 12.8687C13.2818 10.7222 13.8608 8.94761 15.0188 7.54486C16.1767 6.14212 17.7207 5.44074 19.6506 5.44074C22.7574 5.44074 24.6073 7.07885 25.2004 10.3551L22.4326 10.7363C22.1878 8.96644 21.317 8.08148 19.8201 8.08148C18.728 8.08148 17.9325 8.56162 17.4335 9.52189C16.944 10.4727 16.6992 11.626 16.6992 12.9817C16.6992 14.4221 16.9534 15.533 17.4618 16.3144C17.9796 17.0958 18.6998 17.4865 19.6224 17.4865C21.0346 17.4865 21.9713 16.578 22.4326 14.761Z" fill="black"/>
<path d="M30.0238 20.0001H26.8041V5.7373H29.7131V9.14061C30.1274 7.81317 30.697 6.84349 31.4219 6.23155C32.1468 5.61962 32.8905 5.31365 33.6531 5.31365C33.7566 5.31365 33.8979 5.31835 34.0767 5.32777V8.78757C32.4386 8.78757 31.3513 9.31006 30.8146 10.3551C30.2874 11.4001 30.0238 12.4121 30.0238 13.3912V20.0001Z" fill="black"/>
<path d="M44.6052 15.453L47.5143 15.8484C47.1377 17.1381 46.4034 18.202 45.3113 19.0399C44.2192 19.8777 42.8494 20.2967 41.2019 20.2967C39.2249 20.2967 37.6339 19.633 36.4288 18.3055C35.2238 16.9781 34.6213 15.18 34.6213 12.9111C34.6213 10.7552 35.2285 8.97115 36.4429 7.55898C37.6574 6.14682 39.3049 5.44074 41.3855 5.44074C43.419 5.44074 44.9912 6.13741 46.1021 7.53074C47.213 8.92407 47.7685 10.7128 47.7685 12.897L47.7544 13.2641H37.9681C37.9681 14.2338 38.0575 15.0105 38.2364 15.5942C38.4247 16.1779 38.7918 16.6863 39.3379 17.1193C39.8839 17.5524 40.5665 17.7689 41.3855 17.7689C42.9765 17.7689 44.0498 16.9969 44.6052 15.453ZM44.4075 11.1882C44.3981 10.1621 44.0874 9.32419 43.4755 8.67459C42.873 8.025 42.1245 7.7002 41.2302 7.7002C40.3452 7.7002 39.6062 8.00617 39.0131 8.61811C38.42 9.22063 38.0716 10.0773 37.9681 11.1882H44.4075Z" fill="black"/>
<path d="M58.9042 15.453L61.8133 15.8484C61.4367 17.1381 60.7024 18.202 59.6103 19.0399C58.5182 19.8777 57.1484 20.2967 55.5009 20.2967C53.5239 20.2967 51.9329 19.633 50.7278 18.3055C49.5228 16.9781 48.9202 15.18 48.9202 12.9111C48.9202 10.7552 49.5275 8.97115 50.7419 7.55898C51.9564 6.14682 53.6039 5.44074 55.6845 5.44074C57.718 5.44074 59.2902 6.13741 60.4011 7.53074C61.512 8.92407 62.0675 10.7128 62.0675 12.897L62.0533 13.2641H52.2671C52.2671 14.2338 52.3565 15.0105 52.5354 15.5942C52.7237 16.1779 53.0908 16.6863 53.6369 17.1193C54.1829 17.5524 54.8654 17.7689 55.6845 17.7689C57.2755 17.7689 58.3488 16.9969 58.9042 15.453ZM58.7065 11.1882C58.6971 10.1621 58.3864 9.32419 57.7745 8.67459C57.172 8.025 56.4235 7.7002 55.5292 7.7002C54.6442 7.7002 53.9052 8.00617 53.3121 8.61811C52.719 9.22063 52.3706 10.0773 52.2671 11.1882H58.7065Z" fill="black"/>
<path d="M75.9428 20.0001H72.7231V11.0894C72.7231 10.1479 72.5065 9.44187 72.0735 8.97115C71.6404 8.49101 71.1179 8.25094 70.506 8.25094C69.6681 8.25094 68.9338 8.61811 68.303 9.35243C67.6722 10.0868 67.3569 11.1929 67.3569 12.671V20.0001H64.1371V5.7373H67.0744V9.04175C68.1006 6.64108 69.541 5.44074 71.3956 5.44074C72.6478 5.44074 73.7163 5.83615 74.6012 6.62696C75.4956 7.41777 75.9428 8.80639 75.9428 10.7928V20.0001Z" fill="black"/>
<path d="M77.2075 16.7239L80.2296 16.1449C80.6909 17.3029 81.7076 17.8819 83.2798 17.8819C85.2757 17.8819 86.2736 17.2935 86.2736 16.1167C86.2736 15.7401 86.1183 15.4294 85.8076 15.1847C85.4969 14.9399 85.1298 14.7751 84.7061 14.6904L82.1077 14.1961C79.2269 13.6407 77.7865 12.2332 77.7865 9.97378C77.7865 8.71225 78.2431 7.64371 79.1563 6.76817C80.0695 5.88322 81.4299 5.44074 83.2375 5.44074C86.2501 5.44074 88.0906 6.54694 88.759 8.75932L85.8923 9.33831C85.5911 8.26507 84.7344 7.72844 83.3222 7.72844C81.6088 7.72844 80.7521 8.26507 80.7521 9.33831C80.7521 10.082 81.444 10.5951 82.8279 10.8776L85.8923 11.513C88.2742 12.0026 89.4651 13.3677 89.4651 15.6083C89.4651 17.1805 88.8532 18.3573 87.6293 19.1387C86.4054 19.9107 84.9509 20.2967 83.2657 20.2967C81.8065 20.2967 80.5167 20.0048 79.3964 19.4211C78.2761 18.828 77.5465 17.929 77.2075 16.7239Z" fill="black"/>
<path d="M103.016 20.0001H99.7959V10.6657C99.7959 9.6584 99.5794 8.95232 99.1463 8.5475C98.7227 8.13326 98.2237 7.92615 97.6494 7.92615C96.7362 7.92615 95.969 8.2886 95.3476 9.01351C94.7263 9.73842 94.4156 10.9341 94.4156 12.6004V20.0001H91.1958V0.724121H94.4156V8.23682C95.2158 6.18448 96.6185 5.15831 98.6238 5.15831C101.552 5.15831 103.016 6.83878 103.016 10.1997V20.0001Z" fill="black"/>
<path d="M111.595 20.2967C109.487 20.2967 107.877 19.5388 106.766 18.0231C105.655 16.5074 105.099 14.7704 105.099 12.8122C105.099 10.7034 105.711 8.94761 106.935 7.54486C108.169 6.14212 109.793 5.44074 111.807 5.44074C113.718 5.44074 115.286 6.12329 116.51 7.48838C117.743 8.85347 118.36 10.6281 118.36 12.8122C118.36 15.0623 117.719 16.8745 116.439 18.249C115.168 19.6141 113.554 20.2967 111.595 20.2967ZM111.708 17.6418C113.874 17.6418 114.956 16.0272 114.956 12.7981C114.956 11.3389 114.697 10.1903 114.18 9.35243C113.662 8.50513 112.866 8.08148 111.793 8.08148C110.682 8.08148 109.858 8.51925 109.322 9.39479C108.785 10.2609 108.517 11.4142 108.517 12.8546C108.517 14.408 108.799 15.5942 109.364 16.4132C109.938 17.2323 110.72 17.6418 111.708 17.6418Z" fill="black"/>
<path d="M127.066 17.4865V20.0001C126.106 20.2072 125.362 20.3108 124.835 20.3108C123.969 20.3108 123.225 20.1413 122.604 19.8024C121.983 19.4541 121.526 18.9834 121.234 18.3903C120.952 17.7877 120.811 16.8651 120.811 15.6224V8.23682H119.031V5.7373H120.994L121.291 2.02331L123.931 1.78324V5.7373H126.798V8.23682H123.931V15.1988C123.931 16.0931 124.091 16.7051 124.412 17.0346C124.741 17.3547 125.358 17.5147 126.262 17.5147C126.516 17.5147 126.784 17.5053 127.066 17.4865Z" fill="black"/>
<path d="M127.173 16.7239L130.195 16.1449C130.657 17.3029 131.673 17.8819 133.245 17.8819C135.241 17.8819 136.239 17.2935 136.239 16.1167C136.239 15.7401 136.084 15.4294 135.773 15.1847C135.463 14.9399 135.095 14.7751 134.672 14.6904L132.073 14.1961C129.193 13.6407 127.752 12.2332 127.752 9.97378C127.752 8.71225 128.209 7.64371 129.122 6.76817C130.035 5.88322 131.396 5.44074 133.203 5.44074C136.216 5.44074 138.056 6.54694 138.725 8.75932L135.858 9.33831C135.557 8.26507 134.7 7.72844 133.288 7.72844C131.574 7.72844 130.718 8.26507 130.718 9.33831C130.718 10.082 131.41 10.5951 132.794 10.8776L135.858 11.513C138.24 12.0026 139.431 13.3677 139.431 15.6083C139.431 17.1805 138.819 18.3573 137.595 19.1387C136.371 19.9107 134.917 20.2967 133.231 20.2967C131.772 20.2967 130.482 20.0048 129.362 19.4211C128.242 18.828 127.512 17.929 127.173 16.7239Z" fill="black"/>
</svg>
