<svg width="281" height="26" viewBox="0 0 281 26" fill="none" xmlns="http://www.w3.org/2000/svg">
<path d="M20.5318 5.88195L16.1966 20.6744H13.1941L10.5286 10.305L7.87763 20.6744H4.78733L0.232422 5.88195H3.77675L6.69131 15.8266L9.23971 5.88195H12.2714L14.8638 15.8266L17.7197 5.88195H20.5318Z" fill="black"/>
<path d="M31.0634 15.9584L34.0805 16.3685C33.6899 17.7061 32.9283 18.8095 31.7957 19.6785C30.6631 20.5475 29.2424 20.982 27.5337 20.982C25.4833 20.982 23.8332 20.2936 22.5834 18.9169C21.3336 17.5402 20.7087 15.6752 20.7087 13.3221C20.7087 11.0862 21.3385 9.23588 22.598 7.77128C23.8576 6.30668 25.5663 5.57438 27.7241 5.57438C29.8332 5.57438 31.4637 6.29692 32.6159 7.74199C33.768 9.18706 34.3441 11.0422 34.3441 13.3075L34.3295 13.6883H24.1798C24.1798 14.694 24.2726 15.4995 24.4581 16.1049C24.6534 16.7102 25.0341 17.2375 25.6005 17.6866C26.1668 18.1358 26.8747 18.3603 27.7241 18.3603C29.3742 18.3603 30.4873 17.5597 31.0634 15.9584ZM30.8584 11.5353C30.8486 10.471 30.5264 9.60203 29.8917 8.92831C29.2668 8.2546 28.4906 7.91774 27.563 7.91774C26.6452 7.91774 25.8787 8.23507 25.2636 8.86973C24.6485 9.49463 24.2872 10.3831 24.1798 11.5353H30.8584Z" fill="black"/>
<path d="M39.5153 20.6744H36.176V0.682617H39.5153V20.6744Z" fill="black"/>
<path d="M50.8818 15.2407L53.7524 15.5337C53.3814 17.3888 52.6637 18.7607 51.5994 19.6492C50.5352 20.5377 49.2512 20.982 47.7476 20.982C45.7069 20.982 44.1349 20.2399 43.0315 18.7558C41.938 17.2619 41.3912 15.436 41.3912 13.2782C41.3912 11.052 41.9917 9.21147 43.1926 7.75663C44.3936 6.3018 45.9949 5.57438 47.9965 5.57438C51.2187 5.57438 53.1373 7.27332 53.7524 10.6712L50.8818 11.0666C50.6279 9.231 49.7248 8.31318 48.1723 8.31318C47.0397 8.31318 46.2146 8.81115 45.6971 9.80707C45.1894 10.7932 44.9355 11.9893 44.9355 13.3953C44.9355 14.8892 45.1991 16.0414 45.7264 16.8518C46.2634 17.6622 47.0104 18.0674 47.9672 18.0674C49.4318 18.0674 50.4034 17.1252 50.8818 15.2407Z" fill="black"/>
<path d="M60.9008 20.982C58.7137 20.982 57.044 20.196 55.8919 18.624C54.7397 17.052 54.1637 15.2505 54.1637 13.2196C54.1637 11.0325 54.7983 9.21147 56.0676 7.75663C57.3467 6.3018 59.031 5.57438 61.1205 5.57438C63.1026 5.57438 64.7283 6.28227 65.9976 7.69805C67.2767 9.11383 67.9163 10.9543 67.9163 13.2196C67.9163 15.5532 67.2523 17.4328 65.9244 18.8583C64.6063 20.2741 62.9317 20.982 60.9008 20.982ZM61.018 18.2285C63.2637 18.2285 64.3866 16.554 64.3866 13.2049C64.3866 11.6915 64.1181 10.5003 63.581 9.63132C63.044 8.75256 62.219 8.31318 61.1059 8.31318C59.9537 8.31318 59.0994 8.76721 58.5428 9.67526C57.9863 10.5735 57.708 11.7696 57.708 13.2635C57.708 14.8746 58.0009 16.1049 58.5868 16.9543C59.1824 17.8038 59.9928 18.2285 61.018 18.2285Z" fill="black"/>
<path d="M91.8783 20.6744H88.3779V11.4621C88.3779 9.54833 87.5284 8.59146 85.8295 8.59146C84.8433 8.59146 84.0524 8.95272 83.4568 9.67526C82.871 10.3978 82.5781 11.4767 82.5781 12.912V20.6744H79.0337V11.4621C79.0337 9.51904 78.238 8.54752 76.6464 8.54752C75.6798 8.54752 74.8645 8.93808 74.2006 9.7192C73.5464 10.5003 73.2193 11.5646 73.2193 12.912V20.6744H69.7775V5.88195H73.0142V9.03084C74.0687 6.72653 75.714 5.57438 77.9499 5.57438C80.1273 5.57438 81.5431 6.72653 82.1973 9.03084C83.3885 6.72653 85.0337 5.57438 87.133 5.57438C88.5585 5.57438 89.7058 6.01864 90.5748 6.90717C91.4438 7.79569 91.8783 8.89902 91.8783 10.2172V20.6744Z" fill="black"/>
<path d="M104.094 15.9584L107.111 16.3685C106.721 17.7061 105.959 18.8095 104.827 19.6785C103.694 20.5475 102.273 20.982 100.565 20.982C98.5141 20.982 96.864 20.2936 95.6142 18.9169C94.3644 17.5402 93.7395 15.6752 93.7395 13.3221C93.7395 11.0862 94.3693 9.23588 95.6288 7.77128C96.8884 6.30668 98.5971 5.57438 100.755 5.57438C102.864 5.57438 104.495 6.29692 105.647 7.74199C106.799 9.18706 107.375 11.0422 107.375 13.3075L107.36 13.6883H97.2106C97.2106 14.694 97.3034 15.4995 97.4889 16.1049C97.6841 16.7102 98.065 17.2375 98.6313 17.6866C99.1976 18.1358 99.9055 18.3603 100.755 18.3603C102.405 18.3603 103.518 17.5597 104.094 15.9584ZM103.889 11.5353C103.879 10.471 103.557 9.60203 102.923 8.92831C102.298 8.2546 101.521 7.91774 100.594 7.91774C99.676 7.91774 98.9095 8.23507 98.2944 8.86973C97.6793 9.49463 97.318 10.3831 97.2106 11.5353H103.889Z" fill="black"/>
<path d="M122.375 18.0674V20.6744C121.379 20.8892 120.607 20.9966 120.061 20.9966C119.162 20.9966 118.391 20.8209 117.747 20.4694C117.102 20.1081 116.629 19.6199 116.326 19.0048C116.033 18.3799 115.887 17.423 115.887 16.1341V8.47429H114.041V5.88195H116.077L116.385 2.03005L119.123 1.78107V5.88195H122.096V8.47429H119.123V15.6948C119.123 16.6223 119.289 17.257 119.621 17.5987C119.963 17.9307 120.603 18.0967 121.54 18.0967C121.804 18.0967 122.082 18.0869 122.375 18.0674Z" fill="black"/>
<path d="M129.772 20.982C127.585 20.982 125.915 20.196 124.763 18.624C123.611 17.052 123.035 15.2505 123.035 13.2196C123.035 11.0325 123.67 9.21147 124.939 7.75663C126.218 6.3018 127.902 5.57438 129.992 5.57438C131.974 5.57438 133.6 6.28227 134.869 7.69805C136.148 9.11383 136.788 10.9543 136.788 13.2196C136.788 15.5532 136.124 17.4328 134.796 18.8583C133.478 20.2741 131.803 20.982 129.772 20.982ZM129.889 18.2285C132.135 18.2285 133.258 16.554 133.258 13.2049C133.258 11.6915 132.989 10.5003 132.452 9.63132C131.915 8.75256 131.09 8.31318 129.977 8.31318C128.825 8.31318 127.971 8.76721 127.414 9.67526C126.858 10.5735 126.579 11.7696 126.579 13.2635C126.579 14.8746 126.872 16.1049 127.458 16.9543C128.054 17.8038 128.864 18.2285 129.889 18.2285Z" fill="black"/>
<path d="M148.36 25.6687H144.962V5.88195H148.155V8.45964C149.18 6.53613 150.689 5.57438 152.681 5.57438C154.321 5.57438 155.63 6.28715 156.606 7.7127C157.582 9.13824 158.071 10.9592 158.071 13.1757C158.071 15.2749 157.602 17.1008 156.665 18.6533C155.737 20.2057 154.35 20.982 152.505 20.982C150.601 20.982 149.22 20.1911 148.36 18.6093V25.6687ZM148.36 14.611C148.36 15.685 148.678 16.5784 149.312 17.2912C149.957 17.9942 150.669 18.3457 151.451 18.3457C152.515 18.3457 153.291 17.8819 153.779 16.9543C154.277 16.017 154.526 14.8307 154.526 13.3953C154.526 11.8917 154.277 10.6712 153.779 9.73384C153.281 8.78674 152.539 8.31318 151.553 8.31318C150.665 8.31318 149.908 8.69886 149.283 9.47022C148.668 10.2416 148.36 11.2521 148.36 12.5019V14.611Z" fill="black"/>
<path d="M163.271 20.6744H159.932V5.88195H162.949V9.41163C163.378 8.03491 163.969 7.02922 164.721 6.39456C165.473 5.7599 166.244 5.44257 167.035 5.44257C167.142 5.44257 167.289 5.44745 167.474 5.45721V9.04548C165.776 9.04548 164.648 9.58738 164.091 10.6712C163.544 11.755 163.271 12.8046 163.271 13.8201V20.6744Z" fill="black"/>
<path d="M174.476 20.982C172.289 20.982 170.62 20.196 169.468 18.624C168.315 17.052 167.739 15.2505 167.739 13.2196C167.739 11.0325 168.374 9.21147 169.643 7.75663C170.922 6.3018 172.607 5.57438 174.696 5.57438C176.678 5.57438 178.304 6.28227 179.573 7.69805C180.852 9.11383 181.492 10.9543 181.492 13.2196C181.492 15.5532 180.828 17.4328 179.5 18.8583C178.182 20.2741 176.507 20.982 174.476 20.982ZM174.594 18.2285C176.839 18.2285 177.962 16.554 177.962 13.2049C177.962 11.6915 177.694 10.5003 177.157 9.63132C176.62 8.75256 175.795 8.31318 174.681 8.31318C173.529 8.31318 172.675 8.76721 172.118 9.67526C171.562 10.5735 171.284 11.7696 171.284 13.2635C171.284 14.8746 171.577 16.1049 172.162 16.9543C172.758 17.8038 173.568 18.2285 174.594 18.2285Z" fill="black"/>
<path d="M186.692 4.15372H183.353V0.682617H186.692V4.15372ZM186.692 5.88195V20.4401C186.692 24.1309 184.998 25.9763 181.61 25.9763C181.093 25.9763 180.522 25.9177 179.897 25.8005V22.9738C180.316 23.0226 180.673 23.0471 180.966 23.0471C181.893 23.0471 182.523 22.8713 182.855 22.5198C183.187 22.1683 183.353 21.4751 183.353 20.4401V5.88195H186.692Z" fill="black"/>
<path d="M198.923 15.9584L201.94 16.3685C201.549 17.7061 200.788 18.8095 199.655 19.6785C198.523 20.5475 197.102 20.982 195.393 20.982C193.343 20.982 191.693 20.2936 190.443 18.9169C189.193 17.5402 188.568 15.6752 188.568 13.3221C188.568 11.0862 189.198 9.23588 190.458 7.77128C191.717 6.30668 193.426 5.57438 195.584 5.57438C197.693 5.57438 199.323 6.29692 200.475 7.74199C201.628 9.18706 202.204 11.0422 202.204 13.3075L202.189 13.6883H192.039C192.039 14.694 192.132 15.4995 192.318 16.1049C192.513 16.7102 192.894 17.2375 193.46 17.6866C194.026 18.1358 194.734 18.3603 195.584 18.3603C197.234 18.3603 198.347 17.5597 198.923 15.9584ZM198.718 11.5353C198.708 10.471 198.386 9.60203 197.751 8.92831C197.126 8.2546 196.35 7.91774 195.423 7.91774C194.505 7.91774 193.738 8.23507 193.123 8.86973C192.508 9.49463 192.147 10.3831 192.039 11.5353H198.718Z" fill="black"/>
<path d="M212.589 15.2407L215.459 15.5337C215.088 17.3888 214.371 18.7607 213.306 19.6492C212.242 20.5377 210.958 20.982 209.455 20.982C207.414 20.982 205.842 20.2399 204.739 18.7558C203.645 17.2619 203.098 15.436 203.098 13.2782C203.098 11.052 203.699 9.21147 204.9 7.75663C206.101 6.3018 207.702 5.57438 209.704 5.57438C212.926 5.57438 214.844 7.27332 215.459 10.6712L212.589 11.0666C212.335 9.231 211.432 8.31318 209.879 8.31318C208.747 8.31318 207.922 8.81115 207.404 9.80707C206.896 10.7932 206.643 11.9893 206.643 13.3953C206.643 14.8892 206.906 16.0414 207.433 16.8518C207.97 17.6622 208.717 18.0674 209.674 18.0674C211.139 18.0674 212.11 17.1252 212.589 15.2407Z" fill="black"/>
<path d="M223.677 18.0674V20.6744C222.681 20.8892 221.91 20.9966 221.363 20.9966C220.465 20.9966 219.693 20.8209 219.049 20.4694C218.404 20.1081 217.931 19.6199 217.628 19.0048C217.335 18.3799 217.189 17.423 217.189 16.1341V8.47429H215.343V5.88195H217.379L217.687 2.03005L220.426 1.78107V5.88195H223.399V8.47429H220.426V15.6948C220.426 16.6223 220.592 17.257 220.924 17.5987C221.265 17.9307 221.905 18.0967 222.842 18.0967C223.106 18.0967 223.384 18.0869 223.677 18.0674Z" fill="black"/>
<path d="M234.913 20.6744H231.574V0.682617H234.913V20.6744Z" fill="black"/>
<path d="M234.913 20.6744H231.574V0.682617H234.913V20.6744Z" fill="url(#paint0_linear_4468_14)"/>
<path d="M249.912 20.6744H246.807V17.4816C245.967 19.8152 244.41 20.982 242.134 20.982C240.787 20.982 239.718 20.567 238.927 19.7371C238.136 18.8974 237.741 17.7306 237.741 16.2367V5.88195H241.153V15.519C241.153 16.5833 241.388 17.2814 241.856 17.6134C242.325 17.9454 242.784 18.1114 243.233 18.1114C243.955 18.1114 244.693 17.7891 245.444 17.1447C246.196 16.4905 246.572 15.104 246.572 12.9853V5.88195H249.912V20.6744Z" fill="black"/>
<path d="M249.912 20.6744H246.807V17.4816C245.967 19.8152 244.41 20.982 242.134 20.982C240.787 20.982 239.718 20.567 238.927 19.7371C238.136 18.8974 237.741 17.7306 237.741 16.2367V5.88195H241.153V15.519C241.153 16.5833 241.388 17.2814 241.856 17.6134C242.325 17.9454 242.784 18.1114 243.233 18.1114C243.955 18.1114 244.693 17.7891 245.444 17.1447C246.196 16.4905 246.572 15.104 246.572 12.9853V5.88195H249.912V20.6744Z" fill="url(#paint1_linear_4468_14)"/>
<path d="M264.983 20.6744H261.644V11.4328C261.644 10.4564 261.42 9.72408 260.97 9.23588C260.521 8.73792 259.979 8.48893 259.345 8.48893C258.476 8.48893 257.714 8.86973 257.06 9.63132C256.406 10.3929 256.079 11.5402 256.079 13.0731V20.6744H252.739V5.88195H255.786V9.30911C256.85 6.81929 258.344 5.57438 260.267 5.57438C261.566 5.57438 262.674 5.98447 263.592 6.80464C264.52 7.62482 264.983 9.06501 264.983 11.1252V20.6744Z" fill="black"/>
<path d="M264.983 20.6744H261.644V11.4328C261.644 10.4564 261.42 9.72408 260.97 9.23588C260.521 8.73792 259.979 8.48893 259.345 8.48893C258.476 8.48893 257.714 8.86973 257.06 9.63132C256.406 10.3929 256.079 11.5402 256.079 13.0731V20.6744H252.739V5.88195H255.786V9.30911C256.85 6.81929 258.344 5.57438 260.267 5.57438C261.566 5.57438 262.674 5.98447 263.592 6.80464C264.52 7.62482 264.983 9.06501 264.983 11.1252V20.6744Z" fill="url(#paint2_linear_4468_14)"/>
<path d="M280.451 20.6744H277.273C276.989 19.7761 276.819 18.7802 276.76 17.6866C275.871 19.8835 274.202 20.982 271.751 20.982C270.277 20.982 269.09 20.5524 268.192 19.6931C267.304 18.8241 266.859 17.7354 266.859 16.4271C266.859 13.0292 269.842 11.3303 275.808 11.3303C276.042 11.3303 276.36 11.3351 276.76 11.3449V10.2318C276.76 8.69886 275.715 7.93239 273.626 7.93239C271.595 7.93239 270.443 8.69886 270.169 10.2318L267.328 9.80707C267.484 8.57681 268.119 7.56624 269.232 6.77535C270.345 5.9747 271.956 5.57438 274.065 5.57438C275.207 5.57438 276.14 5.67202 276.862 5.8673C277.585 6.05282 278.195 6.37503 278.693 6.83394C279.191 7.28308 279.533 7.77616 279.718 8.31318C279.914 8.84044 280.011 9.73873 280.011 11.008V17.6866C280.011 18.6533 280.158 19.6492 280.451 20.6744ZM276.76 13.1464C272.444 13.1464 270.286 14.1765 270.286 16.2367C270.286 16.8518 270.501 17.3791 270.931 17.8184C271.37 18.248 272.029 18.4629 272.908 18.4629C274.177 18.4629 275.134 18.0625 275.779 17.2619C276.433 16.4515 276.76 15.5337 276.76 14.5084V13.1464Z" fill="black"/>
<path d="M280.451 20.6744H277.273C276.989 19.7761 276.819 18.7802 276.76 17.6866C275.871 19.8835 274.202 20.982 271.751 20.982C270.277 20.982 269.09 20.5524 268.192 19.6931C267.304 18.8241 266.859 17.7354 266.859 16.4271C266.859 13.0292 269.842 11.3303 275.808 11.3303C276.042 11.3303 276.36 11.3351 276.76 11.3449V10.2318C276.76 8.69886 275.715 7.93239 273.626 7.93239C271.595 7.93239 270.443 8.69886 270.169 10.2318L267.328 9.80707C267.484 8.57681 268.119 7.56624 269.232 6.77535C270.345 5.9747 271.956 5.57438 274.065 5.57438C275.207 5.57438 276.14 5.67202 276.862 5.8673C277.585 6.05282 278.195 6.37503 278.693 6.83394C279.191 7.28308 279.533 7.77616 279.718 8.31318C279.914 8.84044 280.011 9.73873 280.011 11.008V17.6866C280.011 18.6533 280.158 19.6492 280.451 20.6744ZM276.76 13.1464C272.444 13.1464 270.286 14.1765 270.286 16.2367C270.286 16.8518 270.501 17.3791 270.931 17.8184C271.37 18.248 272.029 18.4629 272.908 18.4629C274.177 18.4629 275.134 18.0625 275.779 17.2619C276.433 16.4515 276.76 15.5337 276.76 14.5084V13.1464Z" fill="url(#paint3_linear_4468_14)"/>
<defs>
<linearGradient id="paint0_linear_4468_14" x1="117.317" y1="7.11201" x2="129.561" y2="73.4435" gradientUnits="userSpaceOnUse">
<stop stop-color="#D05131"/>
<stop offset="1" stop-color="#6A2919"/>
</linearGradient>
<linearGradient id="paint1_linear_4468_14" x1="117.317" y1="7.11201" x2="129.561" y2="73.4435" gradientUnits="userSpaceOnUse">
<stop stop-color="#D05131"/>
<stop offset="1" stop-color="#6A2919"/>
</linearGradient>
<linearGradient id="paint2_linear_4468_14" x1="117.317" y1="7.11201" x2="129.561" y2="73.4435" gradientUnits="userSpaceOnUse">
<stop stop-color="#D05131"/>
<stop offset="1" stop-color="#6A2919"/>
</linearGradient>
<linearGradient id="paint3_linear_4468_14" x1="117.317" y1="7.11201" x2="129.561" y2="73.4435" gradientUnits="userSpaceOnUse">
<stop stop-color="#D05131"/>
<stop offset="1" stop-color="#6A2919"/>
</linearGradient>
</defs>
</svg>
