<svg width="994" height="199" viewBox="0 0 994 199" fill="none" xmlns="http://www.w3.org/2000/svg">
<path d="M225.499 27.4672C181.893 45.4964 160.926 35.3608 142.03 22.6436L120.518 97.2588C139.396 110.049 162.187 120.565 204.022 101.835L225.499 27.4672Z" fill="#333333"/>
<path d="M83.7381 177.408C64.7993 164.661 44.2102 154.177 0.5 172.25L21.9025 97.4923C65.6212 79.4157 86.6236 89.6457 105.545 102.47L83.7381 177.408Z" fill="#333333"/>
<path d="M109.184 89.2076C97.782 81.5298 85.5192 74.363 68.1034 74.2309C56.6128 74.1423 42.9349 77.4068 25.5703 84.5864L47.0896 10.0205C90.7787 -8.04425 111.761 2.17937 130.673 14.9945L109.184 89.2076Z" fill="#333333"/>
<path d="M116.892 109.902C135.808 122.638 156.818 132.783 200.47 114.739L178.954 189.059C135.293 207.116 114.326 196.89 95.4297 184.076L116.892 109.902Z" fill="#333333"/>
<path d="M304.386 189.839H285.065V77.3311H303.22V91.988C309.049 81.0508 317.627 75.5823 328.953 75.5823C338.28 75.5823 345.719 79.6351 351.271 87.7408C356.823 95.8465 359.599 106.201 359.599 118.803C359.599 130.74 356.934 141.122 351.604 149.949C346.33 158.777 338.446 163.19 327.953 163.19C317.127 163.19 309.271 158.693 304.386 149.699V189.839ZM304.386 126.965C304.386 133.072 306.19 138.151 309.799 142.204C313.463 146.202 317.516 148.2 321.957 148.2C328.009 148.2 332.422 145.563 335.198 140.289C338.03 134.959 339.445 128.214 339.445 120.052C339.445 111.503 338.03 104.563 335.198 99.2331C332.367 93.8478 328.148 91.1552 322.54 91.1552C317.488 91.1552 313.185 93.3482 309.632 97.7341C306.134 102.12 304.386 107.866 304.386 114.973V126.965ZM392.58 161.441H373.593V77.3311H390.748V97.401C393.191 89.5729 396.549 83.8545 400.824 80.2458C405.099 76.6371 409.485 74.8328 413.982 74.8328C414.593 74.8328 415.426 74.8605 416.481 74.9161V95.3191C406.82 95.3191 400.408 98.4003 397.243 104.563C394.134 110.725 392.58 116.694 392.58 122.468V161.441ZM459.705 163.19C447.269 163.19 437.775 158.721 431.224 149.783C424.673 140.844 421.397 130.601 421.397 119.053C421.397 106.617 425.006 96.2629 432.223 87.9906C439.496 79.7184 449.073 75.5823 460.954 75.5823C472.224 75.5823 481.468 79.6074 488.685 87.6575C495.958 95.7077 499.595 106.173 499.595 119.053C499.595 132.322 495.82 143.009 488.269 151.115C480.774 159.165 471.253 163.19 459.705 163.19ZM460.371 147.534C473.14 147.534 479.525 138.013 479.525 118.97C479.525 110.365 477.998 103.591 474.945 98.6502C471.891 93.6535 467.2 91.1552 460.871 91.1552C454.32 91.1552 449.462 93.7368 446.297 98.9C443.133 104.008 441.55 110.809 441.55 119.303C441.55 128.464 443.216 135.459 446.547 140.289C449.934 145.119 454.542 147.534 460.371 147.534ZM532.576 67.5044H513.589V47.7676H532.576V67.5044ZM532.576 77.3311V160.109C532.576 181.095 522.944 191.588 503.679 191.588C500.736 191.588 497.488 191.255 493.935 190.589V174.516C496.323 174.794 498.349 174.932 500.015 174.932C505.289 174.932 508.87 173.933 510.757 171.934C512.645 169.936 513.589 165.994 513.589 160.109V77.3311H532.576ZM605.531 134.626L622.686 136.958C620.465 144.564 616.135 150.837 609.694 155.779C603.254 160.72 595.176 163.19 585.461 163.19C573.802 163.19 564.419 159.276 557.313 151.448C550.206 143.62 546.653 133.016 546.653 119.636C546.653 106.922 550.234 96.4017 557.396 88.0739C564.558 79.7462 574.274 75.5823 586.543 75.5823C598.535 75.5823 607.807 79.6906 614.358 87.9074C620.909 96.1241 624.185 106.673 624.185 119.553L624.101 121.718H566.39C566.39 127.436 566.917 132.017 567.972 135.459C569.083 138.901 571.248 141.899 574.468 144.453C577.688 147.007 581.713 148.284 586.543 148.284C595.926 148.284 602.255 143.731 605.531 134.626ZM604.365 109.476C604.309 103.425 602.477 98.4836 598.868 94.6528C595.315 90.8221 590.901 88.9067 585.627 88.9067C580.408 88.9067 576.05 90.711 572.553 94.3197C569.055 97.8729 567.001 102.925 566.39 109.476H604.365ZM686.646 130.545L702.969 132.211C700.859 142.759 696.778 150.56 690.727 155.612C684.675 160.664 677.375 163.19 668.825 163.19C657.221 163.19 648.283 158.971 642.009 150.532C635.791 142.038 632.682 131.656 632.682 119.386C632.682 106.728 636.097 96.2629 642.925 87.9906C649.754 79.7184 658.859 75.5823 670.24 75.5823C688.562 75.5823 699.471 85.2425 702.969 104.563L686.646 106.811C685.203 96.3739 680.067 91.1552 671.24 91.1552C664.8 91.1552 660.108 93.9866 657.166 99.6495C654.279 105.257 652.835 112.058 652.835 120.052C652.835 128.547 654.334 135.098 657.332 139.706C660.386 144.314 664.633 146.618 670.074 146.618C678.402 146.618 683.926 141.26 686.646 130.545ZM753.105 146.618V161.441C747.442 162.663 743.056 163.274 739.947 163.274C734.839 163.274 730.453 162.274 726.789 160.276C723.125 158.221 720.432 155.445 718.711 151.948C717.046 148.395 716.213 142.954 716.213 135.625V92.0712H705.72V77.3311H717.296L719.044 55.4291L734.617 54.0134V77.3311H751.523V92.0712H734.617V133.127C734.617 138.401 735.561 142.01 737.449 143.953C739.392 145.841 743.028 146.785 748.358 146.785C749.857 146.785 751.439 146.729 753.105 146.618Z" fill="#333333"/>
<path d="M792.944 123.66H779.297V41.9576H792.944V123.66ZM856.692 123.66H844.003V110.612C840.571 120.149 834.206 124.917 824.909 124.917C819.402 124.917 815.033 123.221 811.8 119.829C808.568 116.398 806.952 111.629 806.952 105.524V63.2062H820.898V102.591C820.898 106.941 821.856 109.794 823.772 111.15C825.687 112.507 827.562 113.185 829.398 113.185C832.351 113.185 835.364 111.869 838.436 109.235C841.509 106.561 843.045 100.895 843.045 92.2361V63.2062H856.692V123.66ZM920.74 123.66H907.093V85.8914C907.093 81.9011 906.175 78.9083 904.339 76.9131C902.504 74.878 900.289 73.8605 897.695 73.8605C894.144 73.8605 891.031 75.4167 888.358 78.5292C885.684 81.6417 884.348 86.3304 884.348 92.5952V123.66H870.701V63.2062H883.15V77.2124C887.5 67.037 893.605 61.9493 901.466 61.9493C906.773 61.9493 911.302 63.6252 915.053 66.9771C918.844 70.329 920.74 76.2148 920.74 84.6345V123.66ZM986.403 123.66H973.415C972.258 119.989 971.559 115.919 971.32 111.45C967.689 120.428 960.865 124.917 950.849 124.917C944.824 124.917 939.976 123.161 936.304 119.65C932.673 116.098 930.858 111.649 930.858 106.302C930.858 92.4157 943.048 85.4724 967.429 85.4724C968.387 85.4724 969.684 85.4924 971.32 85.5323V80.9833C971.32 74.7184 967.05 71.586 958.511 71.586C950.211 71.586 945.502 74.7184 944.385 80.9833L932.773 79.2475C933.411 74.2196 936.005 70.0896 940.554 66.8574C945.103 63.5853 951.687 61.9493 960.306 61.9493C964.975 61.9493 968.786 62.3483 971.739 63.1464C974.692 63.9045 977.186 65.2214 979.221 67.0968C981.256 68.9324 982.652 70.9475 983.411 73.1422C984.209 75.297 984.608 78.9681 984.608 84.1556V111.45C984.608 115.4 985.206 119.47 986.403 123.66ZM971.32 92.8945C953.682 92.8945 944.864 97.1043 944.864 105.524C944.864 108.038 945.742 110.193 947.497 111.988C949.293 113.744 951.987 114.622 955.578 114.622C960.765 114.622 964.676 112.986 967.309 109.714C969.983 106.402 971.32 102.651 971.32 98.461V92.8945Z" fill="url(#paint0_linear_4398_142)"/>
<path d="M265.389 62.6009H258.857V24.5634H264.995V29.5187C266.966 25.821 269.866 23.9721 273.695 23.9721C276.848 23.9721 279.364 25.3423 281.241 28.0828C283.118 30.8232 284.056 34.3238 284.056 38.5846C284.056 42.6202 283.155 46.1302 281.353 49.1146C279.57 52.099 276.905 53.5913 273.357 53.5913C269.697 53.5913 267.041 52.0709 265.389 49.0301V62.6009ZM265.389 41.3438C265.389 43.4085 265.999 45.126 267.219 46.4962C268.458 47.8476 269.828 48.5233 271.33 48.5233C273.376 48.5233 274.868 47.6318 275.807 45.8486C276.764 44.0467 277.243 41.7661 277.243 39.0069C277.243 36.1163 276.764 33.7701 275.807 31.9682C274.849 30.1475 273.423 29.2371 271.527 29.2371C269.819 29.2371 268.364 29.9785 267.163 31.4614C265.98 32.9442 265.389 34.8869 265.389 37.2895V41.3438ZM311.96 53H305.85C305.306 51.2732 304.978 49.3586 304.865 47.2564C303.157 51.4796 299.947 53.5913 295.236 53.5913C292.402 53.5913 290.121 52.7654 288.394 51.1136C286.686 49.4431 285.832 47.3502 285.832 44.835C285.832 38.303 291.566 35.0371 303.035 35.0371C303.485 35.0371 304.095 35.0464 304.865 35.0652V32.9254C304.865 29.9785 302.857 28.5051 298.84 28.5051C294.936 28.5051 292.721 29.9785 292.195 32.9254L286.733 32.1089C287.033 29.7439 288.253 27.8012 290.393 26.2808C292.533 24.7417 295.63 23.9721 299.684 23.9721C301.88 23.9721 303.673 24.1598 305.062 24.5352C306.451 24.8918 307.624 25.5113 308.581 26.3934C309.539 27.2569 310.196 28.2048 310.552 29.2371C310.928 30.2507 311.115 31.9775 311.115 34.4176V47.2564C311.115 49.1146 311.397 51.0291 311.96 53ZM304.865 38.5283C296.569 38.5283 292.42 40.5085 292.42 44.469C292.42 45.6515 292.833 46.6651 293.659 47.5098C294.504 48.3356 295.771 48.7486 297.46 48.7486C299.9 48.7486 301.74 47.979 302.979 46.4399C304.236 44.882 304.865 43.1176 304.865 41.1467V38.5283ZM329.7 47.9884V53C327.785 53.4129 326.303 53.6194 325.251 53.6194C323.525 53.6194 322.042 53.2816 320.803 52.6058C319.564 51.9113 318.654 50.9728 318.072 49.7903C317.509 48.589 317.227 46.7496 317.227 44.2719V29.5468H313.68V24.5634H317.593L318.185 17.1586L323.45 16.6799V24.5634H329.165V29.5468H323.45V43.4273C323.45 45.2104 323.769 46.4305 324.407 47.0874C325.064 47.7256 326.293 48.0447 328.095 48.0447C328.602 48.0447 329.137 48.0259 329.7 47.9884ZM339.219 53H332.799V24.5634H338.599V31.3487C339.425 28.7022 340.561 26.7688 342.006 25.5488C343.451 24.3287 344.934 23.7187 346.454 23.7187C346.661 23.7187 346.942 23.7281 347.299 23.7469V30.6449C344.033 30.6449 341.865 31.6866 340.795 33.7701C339.744 35.8536 339.219 37.8713 339.219 39.8234V53ZM356.029 21.2411H349.61V14.5683H356.029V21.2411ZM356.029 53H349.61V24.5634H356.029V53ZM377.88 42.5545L383.398 43.1176C382.685 46.6839 381.306 49.3211 379.26 51.0291C377.214 52.7372 374.745 53.5913 371.855 53.5913C367.932 53.5913 364.91 52.1647 362.789 49.3117C360.687 46.4399 359.636 42.9299 359.636 38.7817C359.636 34.5021 360.79 30.964 363.099 28.1672C365.407 25.3705 368.486 23.9721 372.333 23.9721C378.528 23.9721 382.216 27.2381 383.398 33.7701L377.88 34.5303C377.392 31.0015 375.656 29.2371 372.671 29.2371C370.494 29.2371 368.908 30.1944 367.913 32.1089C366.937 34.0047 366.449 36.304 366.449 39.0069C366.449 41.8787 366.956 44.0936 367.969 45.6515C369.002 47.2094 370.438 47.9884 372.277 47.9884C375.093 47.9884 376.96 46.1771 377.88 42.5545ZM412.485 53H405.728L398.464 38.4157L392.157 45.4826V53H386.019V14.5683H392.157V38.4157C392.701 37.7024 393.133 37.1675 393.452 36.8108L404.714 24.5634H411.612L403.053 33.9672L412.485 53ZM427.578 47.9884V53C425.664 53.4129 424.181 53.6194 423.13 53.6194C421.403 53.6194 419.92 53.2816 418.681 52.6058C417.442 51.9113 416.532 50.9728 415.95 49.7903C415.387 48.589 415.106 46.7496 415.106 44.2719V29.5468H411.558V24.5634H415.472L416.063 17.1586L421.328 16.6799V24.5634H427.043V29.5468H421.328V43.4273C421.328 45.2104 421.647 46.4305 422.285 47.0874C422.942 47.7256 424.172 48.0447 425.973 48.0447C426.48 48.0447 427.015 48.0259 427.578 47.9884ZM433.578 53H430.678V14.5683H437.097V28.4488C438.317 26.3278 439.537 24.9294 440.757 24.2537C441.977 23.5779 443.404 23.2401 445.037 23.2401C448.152 23.2401 450.733 24.5634 452.779 27.2099C454.825 29.8565 455.848 33.5261 455.848 38.2186C455.848 42.4606 454.835 46.0832 452.807 49.0864C450.799 52.0897 447.908 53.5913 444.136 53.5913C440.344 53.5913 437.397 51.8363 435.295 48.3263L433.578 53ZM437.097 40.8652C437.097 43.3991 437.641 45.2761 438.73 46.4962C439.837 47.6975 441.264 48.2981 443.01 48.2981C444.699 48.2981 446.116 47.6036 447.261 46.2146C448.406 44.8256 449.016 42.104 449.091 38.0497C449.091 35.084 448.575 32.8034 447.542 31.208C446.51 29.5937 445.055 28.7866 443.178 28.7866C441.414 28.7866 439.959 29.4717 438.814 30.8419C437.669 32.2122 437.097 34.1455 437.097 36.6419V40.8652ZM465.986 62.6009H459.454V24.5634H465.592V29.5187C467.563 25.821 470.463 23.9721 474.292 23.9721C477.445 23.9721 479.961 25.3423 481.838 28.0828C483.715 30.8232 484.653 34.3238 484.653 38.5846C484.653 42.6202 483.752 46.1302 481.95 49.1146C480.167 52.099 477.502 53.5913 473.954 53.5913C470.294 53.5913 467.638 52.0709 465.986 49.0301V62.6009ZM465.986 41.3438C465.986 43.4085 466.596 45.126 467.816 46.4962C469.055 47.8476 470.425 48.5233 471.927 48.5233C473.973 48.5233 475.465 47.6318 476.404 45.8486C477.361 44.0467 477.84 41.7661 477.84 39.0069C477.84 36.1163 477.361 33.7701 476.404 31.9682C475.446 30.1475 474.02 29.2371 472.124 29.2371C470.416 29.2371 468.961 29.9785 467.76 31.4614C466.578 32.9442 465.986 34.8869 465.986 37.2895V41.3438Z" fill="#333333"/>
<defs>
<linearGradient id="paint0_linear_4398_142" x1="864.049" y1="47.0293" x2="1047.11" y2="190.061" gradientUnits="userSpaceOnUse">
<stop stop-color="#D05131"/>
<stop offset="1" stop-color="#6A2919"/>
</linearGradient>
</defs>
</svg>
