<svg width="119" height="28" viewBox="0 0 119 28" fill="none" xmlns="http://www.w3.org/2000/svg">
<g filter="url(#filter0_d_4408_125)">
<path d="M11.5512 9.32091C12.1422 8.77752 12.672 8.41413 13.1406 8.23073C13.6093 8.04055 14.1731 7.94546 14.8319 7.94546C16.0478 7.94546 16.9783 8.3496 17.6236 9.15789C18.2756 9.96618 18.6017 11.0564 18.6017 12.4284C18.6017 14.2623 18.1126 15.8619 17.1345 17.2272C16.1632 18.5925 14.9338 19.2751 13.4463 19.2751C11.9316 19.2751 10.7871 18.7045 10.0128 17.5634L8.82069 23.1365H4.66378L7.88335 8.18998H11.7142L11.5105 9.28015L11.5512 9.32091ZM12.3459 16.4732C12.9504 16.4732 13.4701 16.0895 13.9048 15.3219C14.3395 14.5544 14.5568 13.6239 14.5568 12.5303C14.5568 11.8646 14.4176 11.3858 14.1391 11.0937C13.8606 10.8016 13.5278 10.6556 13.1406 10.6556C12.3731 10.6556 11.7822 11.0869 11.3678 11.9495C10.9603 12.8054 10.7565 13.6816 10.7565 14.5782C10.7565 15.2167 10.9161 15.6921 11.2354 16.0046C11.5614 16.317 11.9316 16.4732 12.3459 16.4732ZM20.3142 11.1548C20.5655 10.1292 21.136 9.33789 22.0258 8.78091C22.9224 8.22394 24.3081 7.94546 26.1827 7.94546C28.3088 7.94546 29.7419 8.21375 30.4823 8.75035C31.2295 9.28015 31.603 10.0545 31.603 11.0733C31.603 11.7526 31.4163 12.8699 31.0427 14.4254C30.6963 15.8993 30.5231 16.9249 30.5231 17.5023C30.5231 17.9913 30.6114 18.4906 30.788 19H26.7431C26.648 18.5721 26.6005 18.1611 26.6005 17.7672C25.5137 18.7589 24.3013 19.2547 22.9632 19.2547C21.5979 19.2547 20.6164 18.9355 20.0187 18.297C19.421 17.6585 19.1221 16.9181 19.1221 16.0759C19.1221 15.1182 19.387 14.388 19.9168 13.8854C20.4534 13.3827 21.1123 13.0431 21.8934 12.8665C22.6745 12.6831 23.7409 12.5235 25.0926 12.3877C26.2948 12.2586 27.0963 12.1329 27.4971 12.0107C27.5786 11.6914 27.6193 11.4469 27.6193 11.2771C27.6193 11.0054 27.4801 10.7881 27.2016 10.625C26.9299 10.462 26.5665 10.3805 26.1114 10.3805C25.636 10.3805 25.2488 10.4586 24.9499 10.6148C24.6579 10.7643 24.3998 11.0835 24.1756 11.5726L20.3142 11.1548ZM27.0386 14.1605C25.1299 14.4797 24.0092 14.7616 23.6764 15.0061C23.3435 15.2506 23.1771 15.5393 23.1771 15.8721C23.1771 16.2185 23.296 16.4936 23.5337 16.6974C23.7715 16.8944 24.0771 16.9929 24.4507 16.9929C24.9737 16.9929 25.4899 16.7823 25.9994 16.3612C26.5156 15.9333 26.862 15.1997 27.0386 14.1605ZM40.855 8.18998L40.2233 11.1548H38.0532L37.2585 14.9755C37.2041 15.1386 37.177 15.3118 37.177 15.4951C37.177 15.9842 37.4996 16.2287 38.1449 16.2287C38.3487 16.2287 38.7766 16.1642 39.4286 16.0351L38.8071 19C37.5573 19.1698 36.6404 19.2547 36.0562 19.2547C34.8947 19.2547 34.0695 18.9762 33.5804 18.4193C33.0982 17.8623 32.857 17.2544 32.857 16.5955C32.857 16.3782 32.9555 15.7974 33.1525 14.8533L33.9268 11.1548H32.4393L33.0506 8.18998H34.5687L34.9253 6.49869L39.5611 4.18589L38.7053 8.18998H40.855ZM50.5044 8.27149L48.9761 11.4707C48.6569 11.396 48.3716 11.3586 48.1203 11.3586C47.3256 11.3586 46.6803 11.6439 46.1844 12.2144C45.6886 12.785 45.3048 13.6986 45.0331 14.9552L44.1773 19H40.0204L42.323 8.18998H46.2048L45.726 10.3194L45.7667 10.3601C46.412 9.40241 46.9791 8.76054 47.4682 8.4345C47.9572 8.10847 48.4938 7.94546 49.078 7.94546C49.5195 7.94546 49.9949 8.05413 50.5044 8.27149ZM55.9153 4.06363L55.3244 6.91642H51.1776L51.7584 4.06363H55.9153ZM55.0595 8.18998L52.7365 19H48.5694L50.8822 8.18998H55.0595ZM68.071 11.9495L64.3216 12.1533C64.145 11.2092 63.51 10.7371 62.4164 10.7371C61.4043 10.7371 60.6266 11.148 60.0832 11.9699C59.5398 12.785 59.2681 13.6748 59.2681 14.6393C59.2681 15.2235 59.4617 15.6718 59.8489 15.9842C60.236 16.2966 60.6538 16.4529 61.1021 16.4529C62.2092 16.4529 63.0311 15.8416 63.5677 14.6189L67.4495 15.0367C66.4918 17.8487 64.3216 19.2547 60.9391 19.2547C57.1285 19.2547 55.2233 17.6959 55.2233 14.5782C55.2233 12.7646 55.8516 11.2058 57.1082 9.90165C58.3648 8.59752 60.1342 7.94546 62.4164 7.94546C64.0533 7.94546 65.3609 8.28168 66.339 8.95412C67.3171 9.61977 67.8944 10.6182 68.071 11.9495ZM81.9792 8.18998L77.3536 11.9292L80.0841 19H75.4483L74.2868 14.4559L72.0861 16.2287L71.485 19H67.4401L70.6495 4.06363H74.6944L73.0336 11.7967L73.0744 11.8477L77.2415 8.18998H81.9792ZM89.6417 8.18998L89.0101 11.1548H86.8399L86.0452 14.9755C85.9909 15.1386 85.9637 15.3118 85.9637 15.4951C85.9637 15.9842 86.2863 16.2287 86.9316 16.2287C87.1354 16.2287 87.5633 16.1642 88.2153 16.0351L87.5938 19C86.3441 19.1698 85.4271 19.2547 84.8429 19.2547C83.6815 19.2547 82.8562 18.9762 82.3671 18.4193C81.8849 17.8623 81.6438 17.2544 81.6438 16.5955C81.6438 16.3782 81.7422 15.7974 81.9392 14.8533L82.7135 11.1548H81.226L81.8373 8.18998H83.3554L83.712 6.49869L88.3478 4.18589L87.492 8.18998H89.6417ZM95.0934 8.96431C95.5689 8.59752 96.0206 8.33602 96.4485 8.17979C96.8832 8.02357 97.4266 7.94546 98.0787 7.94546C99.3217 7.94546 100.259 8.36658 100.891 9.20883C101.529 10.0511 101.848 11.1379 101.848 12.4692C101.848 14.1808 101.373 15.7397 100.422 17.1457C99.4711 18.5517 98.2145 19.2547 96.6523 19.2547C95.0425 19.2547 93.847 18.5789 93.0659 17.2272L92.6685 19H88.8071L91.9859 4.06363H96.1326L95.0934 8.96431ZM95.5927 16.4529C96.1904 16.4529 96.7066 16.0793 97.1413 15.3321C97.5828 14.5782 97.8036 13.6306 97.8036 12.4895C97.8036 11.2669 97.3179 10.6556 96.3466 10.6556C95.6402 10.6556 95.073 11.0631 94.6451 11.8782C94.2172 12.6865 94.0032 13.5797 94.0032 14.5578C94.0032 15.1827 94.1629 15.6548 94.4821 15.974C94.8081 16.2932 95.1783 16.4529 95.5927 16.4529ZM107.82 9.32091C108.411 8.77752 108.94 8.41413 109.409 8.23073C109.878 8.04055 110.442 7.94546 111.1 7.94546C112.316 7.94546 113.247 8.3496 113.892 9.15789C114.544 9.96618 114.87 11.0564 114.87 12.4284C114.87 14.2623 114.381 15.8619 113.403 17.2272C112.432 18.5925 111.202 19.2751 109.715 19.2751C108.2 19.2751 107.056 18.7045 106.281 17.5634L105.089 23.1365H100.932L104.152 8.18998H107.983L107.779 9.28015L107.82 9.32091ZM108.614 16.4732C109.219 16.4732 109.739 16.0895 110.173 15.3219C110.608 14.5544 110.825 13.6239 110.825 12.5303C110.825 11.8646 110.686 11.3858 110.408 11.0937C110.129 10.8016 109.796 10.6556 109.409 10.6556C108.642 10.6556 108.051 11.0869 107.636 11.9495C107.229 12.8054 107.025 13.6816 107.025 14.5782C107.025 15.2167 107.185 15.6921 107.504 16.0046C107.83 16.317 108.2 16.4732 108.614 16.4732Z" fill="white"/>
</g>
<defs>
<filter id="filter0_d_4408_125" x="0.664062" y="0.0634766" width="118.207" height="27.0732" filterUnits="userSpaceOnUse" color-interpolation-filters="sRGB">
<feFlood flood-opacity="0" result="BackgroundImageFix"/>
<feColorMatrix in="SourceAlpha" type="matrix" values="0 0 0 0 0 0 0 0 0 0 0 0 0 0 0 0 0 0 127 0" result="hardAlpha"/>
<feOffset/>
<feGaussianBlur stdDeviation="2"/>
<feComposite in2="hardAlpha" operator="out"/>
<feColorMatrix type="matrix" values="0 0 0 0 0 0 0 0 0 0 0 0 0 0 0 0 0 0 0.25 0"/>
<feBlend mode="normal" in2="BackgroundImageFix" result="effect1_dropShadow_4408_125"/>
<feBlend mode="normal" in="SourceGraphic" in2="effect1_dropShadow_4408_125" result="shape"/>
</filter>
</defs>
</svg>
