<svg width="993" height="199" viewBox="0 0 993 199" fill="none" xmlns="http://www.w3.org/2000/svg">
<path d="M224.999 27.4672C181.393 45.4964 160.426 35.3608 141.53 22.6436L120.018 97.2588C138.896 110.049 161.687 120.565 203.522 101.835L224.999 27.4672Z" fill="white"/>
<path d="M83.2381 177.408C64.2993 164.661 43.7102 154.177 0 172.25L21.4025 97.4923C65.1212 79.4157 86.1236 89.6457 105.045 102.47L83.2381 177.408Z" fill="white"/>
<path d="M108.684 89.2076C97.282 81.5298 85.0192 74.363 67.6034 74.2309C56.1128 74.1423 42.4349 77.4068 25.0703 84.5864L46.5896 10.0205C90.2787 -8.04425 111.261 2.17937 130.173 14.9945L108.684 89.2076Z" fill="white"/>
<path d="M116.392 109.902C135.308 122.638 156.318 132.783 199.97 114.739L178.454 189.059C134.793 207.116 113.826 196.89 94.9297 184.076L116.392 109.902Z" fill="white"/>
<path d="M303.886 189.839H284.565V77.3311H302.72V91.988C308.549 81.0508 317.127 75.5823 328.453 75.5823C337.78 75.5823 345.219 79.6351 350.771 87.7408C356.323 95.8465 359.099 106.201 359.099 118.803C359.099 130.74 356.434 141.122 351.104 149.949C345.83 158.777 337.946 163.19 327.453 163.19C316.627 163.19 308.771 158.693 303.886 149.699V189.839ZM303.886 126.965C303.886 133.072 305.69 138.151 309.299 142.204C312.963 146.202 317.016 148.2 321.457 148.2C327.509 148.2 331.922 145.563 334.698 140.289C337.53 134.959 338.945 128.214 338.945 120.052C338.945 111.503 337.53 104.563 334.698 99.2331C331.867 93.8478 327.648 91.1552 322.04 91.1552C316.988 91.1552 312.685 93.3482 309.132 97.7341C305.634 102.12 303.886 107.866 303.886 114.973V126.965ZM392.08 161.441H373.093V77.3311H390.248V97.401C392.691 89.5729 396.049 83.8545 400.324 80.2458C404.599 76.6371 408.985 74.8328 413.482 74.8328C414.093 74.8328 414.926 74.8605 415.981 74.9161V95.3191C406.32 95.3191 399.908 98.4003 396.743 104.563C393.634 110.725 392.08 116.694 392.08 122.468V161.441ZM459.205 163.19C446.769 163.19 437.275 158.721 430.724 149.783C424.173 140.844 420.897 130.601 420.897 119.053C420.897 106.617 424.506 96.2629 431.723 87.9906C438.996 79.7184 448.573 75.5823 460.454 75.5823C471.724 75.5823 480.968 79.6074 488.185 87.6575C495.458 95.7077 499.095 106.173 499.095 119.053C499.095 132.322 495.32 143.009 487.769 151.115C480.274 159.165 470.753 163.19 459.205 163.19ZM459.871 147.534C472.64 147.534 479.025 138.013 479.025 118.97C479.025 110.365 477.498 103.591 474.445 98.6502C471.391 93.6535 466.7 91.1552 460.371 91.1552C453.82 91.1552 448.962 93.7368 445.797 98.9C442.633 104.008 441.05 110.809 441.05 119.303C441.05 128.464 442.716 135.459 446.047 140.289C449.434 145.119 454.042 147.534 459.871 147.534ZM532.076 67.5044H513.089V47.7676H532.076V67.5044ZM532.076 77.3311V160.109C532.076 181.095 522.444 191.588 503.179 191.588C500.236 191.588 496.988 191.255 493.435 190.589V174.516C495.823 174.794 497.849 174.932 499.515 174.932C504.789 174.932 508.37 173.933 510.257 171.934C512.145 169.936 513.089 165.994 513.089 160.109V77.3311H532.076ZM605.031 134.626L622.186 136.958C619.965 144.564 615.635 150.837 609.194 155.779C602.754 160.72 594.676 163.19 584.961 163.19C573.302 163.19 563.919 159.276 556.813 151.448C549.706 143.62 546.153 133.016 546.153 119.636C546.153 106.922 549.734 96.4017 556.896 88.0739C564.058 79.7462 573.774 75.5823 586.043 75.5823C598.035 75.5823 607.307 79.6906 613.858 87.9074C620.409 96.1241 623.685 106.673 623.685 119.553L623.601 121.718H565.89C565.89 127.436 566.417 132.017 567.472 135.459C568.583 138.901 570.748 141.899 573.968 144.453C577.188 147.007 581.213 148.284 586.043 148.284C595.426 148.284 601.755 143.731 605.031 134.626ZM603.865 109.476C603.809 103.425 601.977 98.4836 598.368 94.6528C594.815 90.8221 590.401 88.9067 585.127 88.9067C579.908 88.9067 575.55 90.711 572.053 94.3197C568.555 97.8729 566.501 102.925 565.89 109.476H603.865ZM686.146 130.545L702.469 132.211C700.359 142.759 696.278 150.56 690.227 155.612C684.175 160.664 676.875 163.19 668.325 163.19C656.721 163.19 647.783 158.971 641.509 150.532C635.291 142.038 632.182 131.656 632.182 119.386C632.182 106.728 635.597 96.2629 642.425 87.9906C649.254 79.7184 658.359 75.5823 669.74 75.5823C688.062 75.5823 698.971 85.2425 702.469 104.563L686.146 106.811C684.703 96.3739 679.567 91.1552 670.74 91.1552C664.3 91.1552 659.608 93.9866 656.666 99.6495C653.779 105.257 652.335 112.058 652.335 120.052C652.335 128.547 653.834 135.098 656.832 139.706C659.886 144.314 664.133 146.618 669.574 146.618C677.902 146.618 683.426 141.26 686.146 130.545ZM752.605 146.618V161.441C746.942 162.663 742.556 163.274 739.447 163.274C734.339 163.274 729.953 162.274 726.289 160.276C722.625 158.221 719.932 155.445 718.211 151.948C716.546 148.395 715.713 142.954 715.713 135.625V92.0712H705.22V77.3311H716.796L718.544 55.4291L734.117 54.0134V77.3311H751.023V92.0712H734.117V133.127C734.117 138.401 735.061 142.01 736.949 143.953C738.892 145.841 742.528 146.785 747.858 146.785C749.357 146.785 750.939 146.729 752.605 146.618Z" fill="white"/>
<path d="M792.444 123.66H778.797V41.9576H792.444V123.66ZM856.192 123.66H843.503V110.612C840.071 120.149 833.706 124.917 824.409 124.917C818.902 124.917 814.533 123.221 811.3 119.829C808.068 116.398 806.452 111.629 806.452 105.524V63.2062H820.398V102.591C820.398 106.941 821.356 109.794 823.272 111.15C825.187 112.507 827.062 113.185 828.898 113.185C831.851 113.185 834.864 111.869 837.936 109.235C841.009 106.561 842.545 100.895 842.545 92.2361V63.2062H856.192V123.66ZM920.24 123.66H906.593V85.8914C906.593 81.9011 905.675 78.9083 903.839 76.9131C902.004 74.878 899.789 73.8605 897.195 73.8605C893.644 73.8605 890.531 75.4167 887.858 78.5292C885.184 81.6417 883.848 86.3304 883.848 92.5952V123.66H870.201V63.2062H882.65V77.2124C887 67.037 893.105 61.9493 900.966 61.9493C906.273 61.9493 910.802 63.6252 914.553 66.9771C918.344 70.329 920.24 76.2148 920.24 84.6345V123.66ZM985.903 123.66H972.915C971.758 119.989 971.059 115.919 970.82 111.45C967.189 120.428 960.365 124.917 950.349 124.917C944.324 124.917 939.476 123.161 935.804 119.65C932.173 116.098 930.358 111.649 930.358 106.302C930.358 92.4157 942.548 85.4724 966.929 85.4724C967.887 85.4724 969.184 85.4924 970.82 85.5323V80.9833C970.82 74.7184 966.55 71.586 958.011 71.586C949.711 71.586 945.002 74.7184 943.885 80.9833L932.273 79.2475C932.911 74.2196 935.505 70.0896 940.054 66.8574C944.603 63.5853 951.187 61.9493 959.806 61.9493C964.475 61.9493 968.286 62.3483 971.239 63.1464C974.192 63.9045 976.686 65.2214 978.721 67.0968C980.756 68.9324 982.152 70.9475 982.911 73.1422C983.709 75.297 984.108 78.9681 984.108 84.1556V111.45C984.108 115.4 984.706 119.47 985.903 123.66ZM970.82 92.8945C953.182 92.8945 944.364 97.1043 944.364 105.524C944.364 108.038 945.242 110.193 946.997 111.988C948.793 113.744 951.487 114.622 955.078 114.622C960.265 114.622 964.176 112.986 966.809 109.714C969.483 106.402 970.82 102.651 970.82 98.461V92.8945Z" fill="url(#paint0_linear_4398_141)"/>
<path d="M264.889 62.6009H258.357V24.5634H264.495V29.5187C266.466 25.821 269.366 23.9721 273.195 23.9721C276.348 23.9721 278.864 25.3423 280.741 28.0828C282.618 30.8232 283.556 34.3238 283.556 38.5846C283.556 42.6202 282.655 46.1302 280.853 49.1146C279.07 52.099 276.405 53.5913 272.857 53.5913C269.197 53.5913 266.541 52.0709 264.889 49.0301V62.6009ZM264.889 41.3438C264.889 43.4085 265.499 45.126 266.719 46.4962C267.958 47.8476 269.328 48.5233 270.83 48.5233C272.876 48.5233 274.368 47.6318 275.307 45.8486C276.264 44.0467 276.743 41.7661 276.743 39.0069C276.743 36.1163 276.264 33.7701 275.307 31.9682C274.349 30.1475 272.923 29.2371 271.027 29.2371C269.319 29.2371 267.864 29.9785 266.663 31.4614C265.48 32.9442 264.889 34.8869 264.889 37.2895V41.3438ZM311.46 53H305.35C304.806 51.2732 304.478 49.3586 304.365 47.2564C302.657 51.4796 299.447 53.5913 294.736 53.5913C291.902 53.5913 289.621 52.7654 287.894 51.1136C286.186 49.4431 285.332 47.3502 285.332 44.835C285.332 38.303 291.066 35.0371 302.535 35.0371C302.985 35.0371 303.595 35.0464 304.365 35.0652V32.9254C304.365 29.9785 302.357 28.5051 298.34 28.5051C294.436 28.5051 292.221 29.9785 291.695 32.9254L286.233 32.1089C286.533 29.7439 287.753 27.8012 289.893 26.2808C292.033 24.7417 295.13 23.9721 299.184 23.9721C301.38 23.9721 303.173 24.1598 304.562 24.5352C305.951 24.8918 307.124 25.5113 308.081 26.3934C309.039 27.2569 309.696 28.2048 310.052 29.2371C310.428 30.2507 310.615 31.9775 310.615 34.4176V47.2564C310.615 49.1146 310.897 51.0291 311.46 53ZM304.365 38.5283C296.069 38.5283 291.92 40.5085 291.92 44.469C291.92 45.6515 292.333 46.6651 293.159 47.5098C294.004 48.3356 295.271 48.7486 296.96 48.7486C299.4 48.7486 301.24 47.979 302.479 46.4399C303.736 44.882 304.365 43.1176 304.365 41.1467V38.5283ZM329.2 47.9884V53C327.285 53.4129 325.803 53.6194 324.751 53.6194C323.025 53.6194 321.542 53.2816 320.303 52.6058C319.064 51.9113 318.154 50.9728 317.572 49.7903C317.009 48.589 316.727 46.7496 316.727 44.2719V29.5468H313.18V24.5634H317.093L317.685 17.1586L322.95 16.6799V24.5634H328.665V29.5468H322.95V43.4273C322.95 45.2104 323.269 46.4305 323.907 47.0874C324.564 47.7256 325.793 48.0447 327.595 48.0447C328.102 48.0447 328.637 48.0259 329.2 47.9884ZM338.719 53H332.299V24.5634H338.099V31.3487C338.925 28.7022 340.061 26.7688 341.506 25.5488C342.951 24.3287 344.434 23.7187 345.954 23.7187C346.161 23.7187 346.442 23.7281 346.799 23.7469V30.6449C343.533 30.6449 341.365 31.6866 340.295 33.7701C339.244 35.8536 338.719 37.8713 338.719 39.8234V53ZM355.529 21.2411H349.11V14.5683H355.529V21.2411ZM355.529 53H349.11V24.5634H355.529V53ZM377.38 42.5545L382.898 43.1176C382.185 46.6839 380.806 49.3211 378.76 51.0291C376.714 52.7372 374.245 53.5913 371.355 53.5913C367.432 53.5913 364.41 52.1647 362.289 49.3117C360.187 46.4399 359.136 42.9299 359.136 38.7817C359.136 34.5021 360.29 30.964 362.599 28.1672C364.907 25.3705 367.986 23.9721 371.833 23.9721C378.028 23.9721 381.716 27.2381 382.898 33.7701L377.38 34.5303C376.892 31.0015 375.156 29.2371 372.171 29.2371C369.994 29.2371 368.408 30.1944 367.413 32.1089C366.437 34.0047 365.949 36.304 365.949 39.0069C365.949 41.8787 366.456 44.0936 367.469 45.6515C368.502 47.2094 369.938 47.9884 371.777 47.9884C374.593 47.9884 376.46 46.1771 377.38 42.5545ZM411.985 53H405.228L397.964 38.4157L391.657 45.4826V53H385.519V14.5683H391.657V38.4157C392.201 37.7024 392.633 37.1675 392.952 36.8108L404.214 24.5634H411.112L402.553 33.9672L411.985 53ZM427.078 47.9884V53C425.164 53.4129 423.681 53.6194 422.63 53.6194C420.903 53.6194 419.42 53.2816 418.181 52.6058C416.942 51.9113 416.032 50.9728 415.45 49.7903C414.887 48.589 414.606 46.7496 414.606 44.2719V29.5468H411.058V24.5634H414.972L415.563 17.1586L420.828 16.6799V24.5634H426.543V29.5468H420.828V43.4273C420.828 45.2104 421.147 46.4305 421.785 47.0874C422.442 47.7256 423.672 48.0447 425.473 48.0447C425.98 48.0447 426.515 48.0259 427.078 47.9884ZM433.078 53H430.178V14.5683H436.597V28.4488C437.817 26.3278 439.037 24.9294 440.257 24.2537C441.477 23.5779 442.904 23.2401 444.537 23.2401C447.652 23.2401 450.233 24.5634 452.279 27.2099C454.325 29.8565 455.348 33.5261 455.348 38.2186C455.348 42.4606 454.335 46.0832 452.307 49.0864C450.299 52.0897 447.408 53.5913 443.636 53.5913C439.844 53.5913 436.897 51.8363 434.795 48.3263L433.078 53ZM436.597 40.8652C436.597 43.3991 437.141 45.2761 438.23 46.4962C439.337 47.6975 440.764 48.2981 442.51 48.2981C444.199 48.2981 445.616 47.6036 446.761 46.2146C447.906 44.8256 448.516 42.104 448.591 38.0497C448.591 35.084 448.075 32.8034 447.042 31.208C446.01 29.5937 444.555 28.7866 442.678 28.7866C440.914 28.7866 439.459 29.4717 438.314 30.8419C437.169 32.2122 436.597 34.1455 436.597 36.6419V40.8652ZM465.486 62.6009H458.954V24.5634H465.092V29.5187C467.063 25.821 469.963 23.9721 473.792 23.9721C476.945 23.9721 479.461 25.3423 481.338 28.0828C483.215 30.8232 484.153 34.3238 484.153 38.5846C484.153 42.6202 483.252 46.1302 481.45 49.1146C479.667 52.099 477.002 53.5913 473.454 53.5913C469.794 53.5913 467.138 52.0709 465.486 49.0301V62.6009ZM465.486 41.3438C465.486 43.4085 466.096 45.126 467.316 46.4962C468.555 47.8476 469.925 48.5233 471.427 48.5233C473.473 48.5233 474.965 47.6318 475.904 45.8486C476.861 44.0467 477.34 41.7661 477.34 39.0069C477.34 36.1163 476.861 33.7701 475.904 31.9682C474.946 30.1475 473.52 29.2371 471.624 29.2371C469.916 29.2371 468.461 29.9785 467.26 31.4614C466.078 32.9442 465.486 34.8869 465.486 37.2895V41.3438Z" fill="white"/>
<defs>
<linearGradient id="paint0_linear_4398_141" x1="863.549" y1="47.0293" x2="1046.61" y2="190.061" gradientUnits="userSpaceOnUse">
<stop stop-color="#D05131"/>
<stop offset="1" stop-color="#6A2919"/>
</linearGradient>
</defs>
</svg>
